<svg width="108" height="101" viewBox="0 0 108 101" fill="none" xmlns="http://www.w3.org/2000/svg">
<path id="Vector" fill-rule="evenodd" clip-rule="evenodd" d="M44.21 76.7096C58.8633 95.8353 80.5967 107.936 106.581 96.1283C106.87 95.9967 107.096 95.7558 107.207 95.4583C107.319 95.1608 107.309 94.8311 107.178 94.5414C107.046 94.2521 106.805 94.0269 106.507 93.9153C106.209 93.8037 105.879 93.8148 105.59 93.9461C80.7907 105.217 60.0989 93.5071 46.1114 75.25C32.0003 56.8309 24.6299 31.7413 26.7674 16.3544C26.8347 16.0517 26.7833 15.7348 26.6239 15.4688C26.4645 15.2029 26.2092 15.0081 25.9106 14.9248C25.6535 14.8407 25.3751 14.849 25.1235 14.9482C24.8718 15.0473 24.6626 15.2311 24.5319 15.4679C24.1518 16.0672 21.556 23.6885 20.8189 25.6659C19.6453 28.8212 17.7217 37.0167 14.4179 42.2345C12.5402 45.2038 10.2498 47.2446 7.19806 45.9386C4.10852 44.6128 2.99625 40.8939 2.81732 36.2786C2.35649 24.4716 8.52335 6.83726 11.7669 1.99363C11.9431 1.72976 12.0076 1.40689 11.9464 1.09557C11.8853 0.784259 11.7033 0.50982 11.4404 0.332237C11.1762 0.155112 10.8524 0.0901325 10.5402 0.151572C10.2281 0.213011 9.95307 0.395846 9.77563 0.659911C6.39557 5.70632 -0.0552168 24.075 0.423745 36.3716C0.645674 42.0852 2.42648 46.5045 6.25423 48.1422C10.4644 49.944 13.8569 47.6075 16.4433 43.5163C19.8361 38.1538 21.858 29.743 23.0648 26.5038C23.2621 25.971 23.63 24.9606 24.0492 23.7858C24.6005 39.4826 31.8596 60.5903 44.21 76.7096Z" fill="#1A1A1A"/>
</svg>
