<svg width="38" height="38" viewBox="0 0 38 38" fill="none" xmlns="http://www.w3.org/2000/svg">
<path id="Icon material-library-books" d="M3.727 7.81923H0V33.9072C0.00290192 34.8948 0.396499 35.8411 1.09482 36.5394C1.79314 37.2377 2.73943 37.6313 3.727 37.6342H29.815V33.9072H3.727V7.81923ZM33.542 0.365234H11.181C10.1934 0.368136 9.24714 0.761733 8.54882 1.46005C7.8505 2.15837 7.4569 3.10467 7.454 4.09223V26.4532C7.4569 27.4408 7.8505 28.3871 8.54882 29.0854C9.24714 29.7837 10.1934 30.1773 11.181 30.1802H33.542C34.5296 30.1773 35.4759 29.7837 36.1742 29.0854C36.8725 28.3871 37.2661 27.4408 37.269 26.4532V4.09223C37.2661 3.10467 36.8725 2.15837 36.1742 1.46005C35.4759 0.761733 34.5296 0.368136 33.542 0.365234ZM31.679 17.1362H13.044V13.4092H31.679V17.1362ZM24.225 24.5902H13.044V20.8652H24.225V24.5902ZM31.679 9.68223H13.044V5.95523H31.679V9.68223Z" fill="#A983EB"/>
</svg>
