<svg width="160" height="80" viewBox="0 0 160 80" fill="none" xmlns="http://www.w3.org/2000/svg">
<g id="Clicup">
<path id="Clicup [Frame Background]" d="M160 0H0V80H160V0Z" fill="white"/>
<g id="clickup logo 1">
<path id="Vector" fill-rule="evenodd" clip-rule="evenodd" d="M9.39697 48.441L14.459 44.564C17.146 48.073 19.997 49.69 23.182 49.69C26.345 49.69 29.121 48.09 31.688 44.61L36.819 48.394C33.119 53.414 28.512 56.066 23.181 56.066C17.869 56.064 13.22 53.433 9.39697 48.441Z" fill="url(#paint0_linear_1_189)"/>
<path id="Vector_2" fill-rule="evenodd" clip-rule="evenodd" d="M23.166 31.592L14.157 39.354L9.995 34.524L23.184 23.16L36.27 34.533L32.088 39.345L23.166 31.592Z" fill="url(#paint1_linear_1_189)"/>
<path id="Vector_3" d="M66.27 29.714H71.37V50.966H66.27V29.714Z" fill="black"/>
<path id="Vector_4" fill-rule="evenodd" clip-rule="evenodd" d="M55.962 51.0589C54.5733 51.097 53.1909 50.8581 51.8955 50.3562C50.6001 49.8544 49.4176 49.0996 48.417 48.1359C47.4104 47.1499 46.6205 45.9647 46.098 44.656C45.5754 43.3474 45.3315 41.9442 45.382 40.5359C45.3412 39.1267 45.5868 37.7238 46.1039 36.4123C46.6211 35.1007 47.399 33.9077 48.3907 32.9056C49.3823 31.9035 50.5671 31.113 51.8731 30.5821C53.1792 30.0512 54.5794 29.7909 55.989 29.8169C57.6725 29.7771 59.3429 30.1226 60.8724 30.8271C62.4019 31.5317 63.7501 32.5766 64.814 33.8819L61.502 37.3619C60.869 36.5932 60.0802 35.9675 59.1877 35.5261C58.2951 35.0846 57.3191 34.8375 56.324 34.8009C55.5848 34.7819 54.8496 34.9155 54.1644 35.1936C53.4793 35.4716 52.8588 35.8881 52.342 36.4169C51.8167 36.9581 51.4056 37.5992 51.133 38.3023C50.8603 39.0054 50.7318 39.7562 50.755 40.5099C50.7374 41.2501 50.8689 41.9863 51.1415 42.6746C51.4141 43.363 51.8224 43.9895 52.342 44.5169C52.8602 45.0338 53.4775 45.4408 54.1567 45.7134C54.8359 45.9861 55.5632 46.1189 56.295 46.1039C57.3197 46.0938 58.3287 45.8503 59.2453 45.392C60.1618 44.9337 60.962 44.2726 61.585 43.4589L65.037 46.7719C64.0184 48.0798 62.7137 49.1368 61.223 49.8619C59.59 50.6765 57.7857 51.088 55.961 51.0619L55.962 51.0589Z" fill="black"/>
<path id="Vector_5" fill-rule="evenodd" clip-rule="evenodd" d="M79.021 31.414C79.021 31.9605 78.8589 32.4947 78.5553 32.949C78.2517 33.4034 77.8202 33.7576 77.3154 33.9667C76.8105 34.1758 76.2549 34.2305 75.719 34.1239C75.183 34.0173 74.6907 33.7541 74.3043 33.3677C73.9178 32.9813 73.6547 32.489 73.5481 31.953C73.4415 31.4171 73.4962 30.8615 73.7053 30.3566C73.9144 29.8518 74.2686 29.4203 74.723 29.1167C75.1773 28.813 75.7115 28.651 76.258 28.651C76.6209 28.6509 76.9802 28.7222 77.3155 28.8611C77.6508 28.9999 77.9554 29.2034 78.212 29.46C78.4686 29.7166 78.6721 30.0212 78.8109 30.3565C78.9498 30.6918 79.0211 31.0511 79.021 31.414ZM78.808 50.966H73.708V35.451H78.808V50.966Z" fill="black"/>
<path id="Vector_6" fill-rule="evenodd" clip-rule="evenodd" d="M88.668 51.088C87.5833 51.1299 86.5013 50.9517 85.4873 50.5642C84.4733 50.1766 83.5483 49.5877 82.768 48.833C82.016 48.0732 81.4277 47.1674 81.0394 46.1714C80.651 45.1754 80.4708 44.1104 80.51 43.042C80.469 41.9713 80.6507 40.9038 81.0437 39.9069C81.4367 38.9101 82.0324 38.0057 82.793 37.251C83.5831 36.4933 84.5181 35.903 85.5419 35.5155C86.5657 35.128 87.6572 34.9513 88.751 34.996C90.2783 34.9329 91.79 35.3253 93.0937 36.1233C94.3975 36.9214 95.4345 38.0891 96.073 39.478L92.148 41.538C91.8379 40.936 91.3661 40.4322 90.7857 40.0832C90.2053 39.7342 89.5392 39.5537 88.862 39.562C88.3938 39.5463 87.9274 39.6269 87.4917 39.799C87.0559 39.971 86.6602 40.2307 86.329 40.562C86.0115 40.8906 85.762 41.2786 85.5948 41.7039C85.4277 42.1291 85.3462 42.5832 85.355 43.04C85.3362 43.5027 85.412 43.9643 85.5779 44.3966C85.7437 44.8289 85.9962 45.2227 86.3197 45.554C86.6432 45.8853 87.0309 46.147 87.4591 46.3231C87.8874 46.4991 88.3471 46.5859 88.81 46.578C89.4881 46.5897 90.1557 46.41 90.7363 46.0594C91.3168 45.7088 91.7867 45.2016 92.092 44.596L96.017 46.935C95.2945 48.2378 94.2253 49.315 92.9279 50.0472C91.6305 50.7794 90.1557 51.1379 88.667 51.083L88.668 51.088Z" fill="black"/>
<path id="Vector_7" fill-rule="evenodd" clip-rule="evenodd" d="M102.399 39.744L106.999 35.452H113.232L106.429 41.798L113.593 50.967H107.659L102.999 44.999L102.399 45.556V50.966H97.299V29.714H102.399V39.744Z" fill="black"/>
<path id="Vector_8" fill-rule="evenodd" clip-rule="evenodd" d="M114.513 42.936V29.714H119.826V42.639C119.771 43.0908 119.817 43.5492 119.961 43.9809C120.105 44.4126 120.344 44.8068 120.659 45.1348C120.975 45.4628 121.36 45.7163 121.785 45.8771C122.211 46.0378 122.667 46.1017 123.121 46.064C123.573 46.0946 124.026 46.0259 124.448 45.8627C124.871 45.6995 125.252 45.4458 125.566 45.1193C125.88 44.7928 126.118 44.4016 126.264 43.9731C126.411 43.5446 126.462 43.0892 126.413 42.639V29.714H131.726V42.936C131.726 49.005 127.465 51.288 123.119 51.288C118.803 51.288 114.513 49.005 114.513 42.936Z" fill="black"/>
<path id="Vector_9" fill-rule="evenodd" clip-rule="evenodd" d="M138.741 49.776V57.339H133.853V35.452H138.741V36.852C139.997 35.8134 141.574 35.2433 143.204 35.239C147.312 35.239 150.643 38.855 150.643 43.315C150.643 47.775 147.312 51.391 143.204 51.391C141.574 51.3862 139.997 50.8153 138.741 49.776ZM142.247 46.927C143.191 46.9125 144.09 46.524 144.748 45.8467C145.405 45.1694 145.767 44.2588 145.753 43.315C145.767 42.3711 145.405 41.4602 144.748 40.7827C144.091 40.1052 143.191 39.7165 142.247 39.702C141.305 39.7162 140.407 40.103 139.75 40.7778C139.093 41.4525 138.73 42.3601 138.74 43.302V43.319C138.727 44.2625 139.089 45.1724 139.747 45.8491C140.404 46.5257 141.304 46.9138 142.247 46.928V46.927Z" fill="black"/>
</g>
</g>
<defs>
<linearGradient id="paint0_linear_1_189" x1="9.39697" y1="58.1363" x2="36.819" y2="58.1363" gradientUnits="userSpaceOnUse">
<stop stop-color="#8930FD"/>
<stop offset="1" stop-color="#49CCF9"/>
</linearGradient>
<linearGradient id="paint1_linear_1_189" x1="9.995" y1="42.269" x2="36.27" y2="42.269" gradientUnits="userSpaceOnUse">
<stop stop-color="#FF02F0"/>
<stop offset="1" stop-color="#FFC800"/>
</linearGradient>
</defs>
</svg>
