<svg width="160" height="80" viewBox="0 0 160 80" fill="none" xmlns="http://www.w3.org/2000/svg">
<g id="dropbox">
<path id="dropbox [Frame Background]" d="M160 0H0V80H160V0Z" fill="white"/>
<g id="dropbox_blue 1">
<g id="XMLID_12_">
<path id="XMLID_29_" d="M49.713 30.8051H56.37C62.07 30.8051 65.676 34.4831 65.676 40.2211C65.676 45.9591 62.09 49.6371 56.37 49.6371H49.713V30.8051ZM56.223 46.1981C59.809 46.1981 61.777 43.8981 61.777 40.2391C61.777 36.5611 59.809 34.2621 56.223 34.2621H53.613V46.1981H56.223Z" fill="#007EE5"/>
<path id="XMLID_27_" d="M75.773 39.6871C75.1884 39.3639 74.5277 39.2037 73.86 39.2231C73.265 39.1793 72.6741 39.3507 72.1949 39.706C71.7156 40.0614 71.38 40.577 71.249 41.1591V49.6591H67.46V35.9361H71.267V37.2781C71.5922 36.7603 72.0461 36.3357 72.5843 36.0456C73.1225 35.7556 73.7267 35.61 74.338 35.6231C74.8274 35.6082 75.3149 35.6894 75.773 35.8621V39.6871Z" fill="#007EE5"/>
<path id="XMLID_24_" d="M83.368 49.968C79.377 49.968 76.637 47.023 76.637 42.814C76.637 38.584 79.377 35.623 83.368 35.623C87.359 35.623 90.081 38.566 90.081 42.814C90.081 47.025 87.359 49.968 83.368 49.968ZM83.368 38.86C81.455 38.86 80.425 40.515 80.425 42.814C80.425 45.076 81.473 46.75 83.368 46.75C85.263 46.75 86.311 45.094 86.311 42.814C86.311 40.514 85.263 38.86 83.368 38.86Z" fill="#007EE5"/>
<path id="XMLID_21_" d="M95.524 54.731H91.717V35.935H95.524V37.075C95.9699 36.6151 96.5047 36.2508 97.096 36.0042C97.6872 35.7577 98.3225 35.6341 98.963 35.641C102.954 35.641 105.217 38.951 105.217 42.832C105.217 46.694 102.955 49.986 98.964 49.986C98.3232 49.9929 97.6878 49.8693 97.0963 49.6225C96.5049 49.3758 95.9699 49.0112 95.524 48.551V54.731ZM95.524 45.057C95.7616 45.5371 96.1285 45.9413 96.5835 46.224C97.0385 46.5067 97.5634 46.6567 98.099 46.657C100.159 46.657 101.391 45.002 101.391 42.813C101.391 40.606 100.159 38.951 98.099 38.951C97.564 38.9542 97.0403 39.1054 96.5858 39.3878C96.1313 39.6701 95.7638 40.0727 95.524 40.551V45.057Z" fill="#007EE5"/>
<path id="XMLID_18_" d="M110.697 49.6551H106.853V29.701H110.697V37.076C111.143 36.6159 111.678 36.2514 112.269 36.0047C112.86 35.758 113.495 35.6343 114.136 35.641C118.127 35.641 120.37 38.896 120.37 42.832C120.37 46.768 118.126 49.986 114.136 49.986C113.495 49.993 112.86 49.8694 112.269 49.6228C111.678 49.3763 111.143 49.012 110.697 48.552V49.6551ZM110.697 45.055C110.927 45.5413 111.292 45.9508 111.749 46.2347C112.205 46.5185 112.734 46.6644 113.272 46.6551C115.332 46.6551 116.564 45 116.564 42.811C116.564 40.604 115.332 38.949 113.272 38.949C112.737 38.9522 112.213 39.1034 111.759 39.3858C111.304 39.6682 110.937 40.0708 110.697 40.549V45.055Z" fill="#007EE5"/>
<path id="XMLID_15_" d="M128.462 50.005C124.471 50.005 121.731 47.06 121.731 42.851C121.731 38.621 124.471 35.66 128.462 35.66C132.453 35.66 135.175 38.603 135.175 42.851C135.175 47.06 132.431 50.005 128.462 50.005ZM128.462 38.897C126.549 38.897 125.519 40.552 125.519 42.851C125.519 45.113 126.567 46.787 128.462 46.787C130.357 46.787 131.405 45.131 131.405 42.851C131.405 40.551 130.357 38.897 128.462 38.897Z" fill="#007EE5"/>
<path id="XMLID_13_" d="M143.727 42.5751L148.727 49.6751H144.518L141.575 45.3701L138.596 49.6701H134.605L139.552 42.6671L134.899 35.9541H139.111L141.759 39.8541L144.444 35.9541H148.435L143.727 42.5751Z" fill="#007EE5"/>
</g>
<g id="XMLID_6_">
<path id="XMLID_11_" d="M28.012 30.105L18.044 36.266L11.184 30.731L21.097 24.349L28.012 30.105Z" fill="#007EE5"/>
<path id="XMLID_10_" d="M18.044 36.267L28.012 42.428L21.097 48.184L11.184 41.674L18.044 36.267Z" fill="#007EE5"/>
<path id="XMLID_9_" d="M37.96 36.267L44.801 41.747L34.926 48.184L28.011 42.428L37.96 36.267Z" fill="#007EE5"/>
<path id="XMLID_8_" d="M37.96 36.266L28.011 30.105L34.926 24.349L44.802 30.786L37.96 36.266Z" fill="#007EE5"/>
<path id="XMLID_7_" d="M34.963 49.416L37.924 47.485V49.66L28.03 55.6L18.117 49.66V47.485L21.096 49.416L28.03 43.66L34.963 49.416Z" fill="#007EE5"/>
</g>
</g>
</g>
</svg>
