<svg width="240" height="80" viewBox="0 0 240 80" fill="none" xmlns="http://www.w3.org/2000/svg">
<g id="Elastic">
<path id="Elastic [Frame Background]" d="M240 0H0V80H240V0Z" fill="white"/>
<g id="Elastic logo 1">
<g id="Group">
<path id="Vector" d="M91.015 41.404C91.0023 44.0126 90.1902 46.5546 88.6883 48.6876C87.1863 50.8205 85.0667 52.4418 82.615 53.333C83.3409 55.289 83.4091 57.4284 82.8092 59.4266C82.2093 61.4249 80.974 63.173 79.2907 64.4057C77.6074 65.6384 75.568 66.2885 73.4819 66.2573C71.3957 66.2261 69.3767 65.5154 67.731 64.233C65.5065 67.3377 62.3536 69.656 58.7267 70.8535C55.0999 72.0511 51.1864 72.066 47.5505 70.8963C43.9146 69.7266 40.744 67.4325 38.4958 64.3449C36.2476 61.2572 35.0379 57.5354 35.041 53.716C35.0439 52.5621 35.1547 51.4111 35.372 50.278C32.9168 49.4023 30.7933 47.7871 29.294 45.6547C27.7947 43.5224 26.9933 40.9777 27 38.371C27.0134 35.7633 27.825 33.2223 29.3257 31.0897C30.8263 28.9571 32.944 27.3351 35.394 26.442C34.6611 24.4844 34.5872 22.341 35.1835 20.3376C35.7797 18.3341 37.0136 16.5801 38.6977 15.3418C40.3817 14.1035 42.4239 13.4488 44.514 13.4769C46.6041 13.5051 48.6279 14.2147 50.278 15.498C52.687 12.1522 56.1673 9.7305 60.1417 8.63447C64.1161 7.53845 68.3458 7.83399 72.1292 9.47206C75.9126 11.1101 79.0223 13.9923 80.9426 17.6406C82.8629 21.2888 83.4784 25.4839 82.687 29.53C85.131 30.41 87.2432 32.024 88.7345 34.1508C90.2258 36.2776 91.0234 38.8134 91.018 41.411" fill="white"/>
<path id="Vector_2" d="M49.433 29.626L51.788 17.443C53.6956 14.6615 56.4432 12.5635 59.6289 11.4558C62.8146 10.3481 66.2711 10.2889 69.4929 11.2868C72.7146 12.2847 75.5325 14.2874 77.5343 17.0019C79.536 19.7164 80.6166 23.0002 80.618 26.373C80.6215 27.4137 80.521 28.4522 80.318 29.473L66.177 41.86L52.168 35.46L49.433 29.626Z" fill="#FEC514"/>
<path id="Vector_3" d="M51.454 37.8419L65.515 44.2489L68.629 50.2019L66.297 62.3589C64.3922 65.1598 61.6397 67.2762 58.4436 68.3977C55.2475 69.5192 51.776 69.5866 48.5388 68.5901C45.3015 67.5936 42.4689 65.5856 40.4568 62.8608C38.4447 60.1361 37.3589 56.8381 37.359 53.4509C37.3579 52.3926 37.4614 51.3368 37.668 50.2989L51.454 37.8419Z" fill="#00BFB3"/>
<path id="Vector_4" d="M37.44 21.266C37.7923 20.0937 38.4232 19.024 39.2788 18.1485C40.1344 17.273 41.1892 16.6177 42.3532 16.2385C43.5171 15.8593 44.7556 15.7675 45.9627 15.971C47.1698 16.1745 48.3097 16.6672 49.285 17.407L47.185 28.324L37.585 26.058C37.0197 24.5184 36.9688 22.837 37.44 21.266Z" fill="#F04E98"/>
<path id="Vector_5" d="M47.297 30.8309L49.774 36.1149L36.302 48.2899C34.2934 47.5278 32.5643 46.1723 31.3446 44.4038C30.125 42.6352 29.4725 40.5373 29.474 38.3889C29.4918 36.1659 30.2019 34.0037 31.5056 32.2031C32.8092 30.4024 34.6417 29.0528 36.748 28.3419L47.297 30.8309Z" fill="#1BA9F5"/>
<path id="Vector_6" d="M70.847 51.494L80.44 53.727C80.9991 55.2623 81.0465 56.9372 80.5753 58.5017C80.104 60.0662 79.1394 61.4362 77.8254 62.4073C76.5114 63.3784 74.9185 63.8985 73.2847 63.8897C71.6508 63.881 70.0636 63.3441 68.76 62.359L70.847 51.494Z" fill="#93C90E"/>
<path id="Vector_7" d="M67.908 43.6059L81.72 31.5129C83.7247 32.2727 85.451 33.6241 86.6697 35.3878C87.8885 37.1515 88.5422 39.2441 88.544 41.3879C88.5282 43.6113 87.8189 45.7743 86.5149 47.5752C85.2109 49.3761 83.3774 50.7251 81.27 51.4339L70.708 48.9679L67.908 43.6059Z" fill="#0077CC"/>
<path id="Vector_8" d="M116.511 52.8L117.791 52.67L117.88 55.27C115.033 55.7001 112.159 55.9363 109.28 55.977C106.105 55.977 103.855 55.058 102.53 53.22C101.205 51.382 100.543 48.5227 100.544 44.642C100.544 36.9087 103.617 33.042 109.764 33.042C112.741 33.042 114.961 33.873 116.424 35.535C117.887 37.197 118.621 39.8017 118.624 43.349L118.449 45.864H103.897C103.755 47.7669 104.219 49.666 105.222 51.289C106.103 52.465 107.639 53.053 109.828 53.053C112.017 53.053 114.245 52.9687 116.511 52.8ZM115.32 43.23C115.32 40.5233 114.887 38.612 114.02 37.496C113.496 36.9036 112.839 36.443 112.104 36.1515C111.368 35.86 110.575 35.7457 109.787 35.818C108.966 35.7582 108.142 35.886 107.377 36.1916C106.613 36.4972 105.928 36.9726 105.374 37.582C104.389 38.7553 103.882 40.638 103.852 43.23H115.32Z" fill="#1C1E23"/>
<path id="Vector_9" d="M123.242 55.806V26.783H126.55V55.806H123.242Z" fill="#1C1E23"/>
<path id="Vector_10" d="M147.383 40.138V51.267C147.383 52.383 150.129 52.324 150.129 52.324L149.962 55.249C147.636 55.249 145.713 55.442 144.562 54.322C142.063 55.432 139.356 55.9966 136.622 55.978C135.772 56.0363 134.919 55.9128 134.12 55.6157C133.321 55.3186 132.595 54.8547 131.989 54.255C130.845 52.868 130.277 51.0953 130.401 49.302C130.328 48.4411 130.435 47.5744 130.716 46.7574C130.997 45.9404 131.446 45.1913 132.034 44.558C133.493 43.4002 135.289 42.7474 137.151 42.698L144.075 42.038V40.138C144.182 38.9793 143.835 37.8243 143.108 36.916C142.755 36.5844 142.338 36.3277 141.882 36.1616C141.427 35.9954 140.943 35.9231 140.459 35.949H131.767V33.038H140.239C142.74 33.038 144.555 33.6123 145.686 34.761C146.817 35.9096 147.383 37.703 147.386 40.141L147.383 40.138ZM133.791 49.138C133.791 51.844 134.907 53.1973 137.14 53.198C139.154 53.1958 141.154 52.8522 143.053 52.182L144.065 51.829V44.551L137.55 45.169C136.484 45.179 135.461 45.5878 134.681 46.315C134.042 47.1114 133.724 48.1187 133.791 49.138Z" fill="#1C1E23"/>
<path id="Vector_11" d="M160.299 35.9959C157.094 35.9959 155.491 37.1123 155.491 39.3449C155.452 39.7769 155.535 40.2111 155.732 40.5976C155.929 40.984 156.231 41.3069 156.604 41.5289C158.212 42.1973 159.903 42.6431 161.631 42.8539C163.603 43.076 165.502 43.7317 167.191 44.7739C168.278 45.5953 168.822 47.1383 168.824 49.4029C168.901 50.3498 168.741 51.3009 168.36 52.1711C167.979 53.0412 167.388 53.8033 166.64 54.3889C165.184 55.4456 163.059 55.9753 160.266 55.9779C158.443 55.9779 152.355 55.3009 152.355 55.3009L152.533 52.4339C156.033 52.7689 158.557 53.0179 160.265 53.0179C161.614 53.0976 162.96 52.8163 164.165 52.2029C164.617 51.9132 164.982 51.5051 165.218 51.0229C165.455 50.5408 165.555 50.003 165.508 49.4679C165.571 48.9714 165.497 48.4672 165.295 48.0092C165.093 47.5512 164.771 47.1568 164.362 46.8679C162.763 46.1801 161.067 45.7417 159.335 45.5679C157.387 45.375 155.506 44.7557 153.824 43.7539C152.735 42.9613 152.191 41.4903 152.191 39.3409C152.125 38.4181 152.3 37.494 152.698 36.659C153.096 35.8241 153.705 35.1069 154.464 34.5779C156.151 33.496 158.129 32.9571 160.131 33.0339C161.924 33.0339 168.15 33.4919 168.15 33.4919V36.3749C164.864 36.2299 162.178 35.9959 160.299 35.9959Z" fill="#1C1E23"/>
<path id="Vector_12" d="M184.772 36.346H177.753V46.891C177.641 48.5711 177.827 50.2579 178.304 51.873C178.676 52.673 179.547 53.064 180.927 53.064L184.853 52.8L185.072 55.531C183.586 55.8055 182.082 55.9683 180.572 56.018C178.28 56.018 176.692 55.4586 175.809 54.34C174.926 53.2213 174.485 51.088 174.488 47.94V36.346H171.372V33.481H174.505V26.731H177.772V33.481H184.772V36.346Z" fill="#1C1E23"/>
<path id="Vector_13" d="M189.367 30.664V26.824H192.675V30.664H189.367ZM189.367 55.806V33.481H192.675V55.806H189.367Z" fill="#1C1E23"/>
<path id="Vector_14" d="M207.003 33.038C208.655 33.1084 210.301 33.2861 211.93 33.57L212.987 33.7L212.857 36.39C211.128 36.1711 209.39 36.0396 207.648 35.996C205.147 35.996 203.449 36.5913 202.554 37.782C201.659 38.9726 201.209 41.178 201.206 44.398C201.206 47.6226 201.625 49.865 202.464 51.125C203.303 52.385 205.052 53.0183 207.711 53.025L212.92 52.631L213.054 55.366C211.026 55.7096 208.978 55.9161 206.922 55.984C203.484 55.984 201.11 55.101 199.8 53.335C198.49 51.569 197.835 48.5913 197.835 44.402C197.835 40.212 198.541 37.271 199.952 35.579C201.363 33.887 203.714 33.04 207.003 33.038Z" fill="#1C1E23"/>
</g>
</g>
</g>
</svg>
