<svg width="184" height="80" viewBox="0 0 184 80" fill="none" xmlns="http://www.w3.org/2000/svg">
<g id="Google Workspace">
<path id="Google Workspace [Frame Background]" d="M184 0H0V80H184V0Z" fill="white"/>
<g id="Group 2">
<g id="Group">
<path id="Vector" d="M39.781 38.438V34.138H54C54.1629 35.0138 54.2413 35.9033 54.234 36.794C54.234 39.919 53.375 43.903 50.562 46.638C47.828 49.529 44.39 51.013 39.703 51.013C35.5794 51.0125 31.6213 49.3903 28.6834 46.4967C25.7455 43.6031 24.0633 39.6702 24 35.547C24.0594 31.4158 25.7374 27.4727 28.6732 24.5655C31.609 21.6583 35.5683 20.019 39.7 20C41.6791 19.9744 43.6438 20.3412 45.4803 21.0792C47.3169 21.8173 48.989 22.912 50.4 24.3L47.359 27.266C45.7719 25.7515 43.7714 24.7415 41.6103 24.3638C39.4493 23.9861 37.2248 24.2575 35.218 25.1438C33.2113 26.0301 31.5123 27.4915 30.3359 29.3432C29.1595 31.1949 28.5586 33.3538 28.609 35.547C28.5916 37.016 28.8653 38.4739 29.4145 39.8365C29.9637 41.199 30.7774 42.4393 31.8087 43.4856C32.8399 44.5319 34.0682 45.3635 35.4227 45.9324C36.7772 46.5013 38.2309 46.7962 39.7 46.8C41.1604 46.8576 42.6167 46.6093 43.9756 46.0711C45.3345 45.533 46.5659 44.7169 47.591 43.675C48.9061 42.2301 49.7033 40.3888 49.857 38.441L39.781 38.438Z" fill="#4285F4"/>
<path id="Vector_2" d="M75.875 41.016C75.8901 42.34 75.6392 43.6536 75.1371 44.8788C74.635 46.104 73.8919 47.2159 72.952 48.1485C72.0121 49.0812 70.8945 49.8155 69.6654 50.3081C68.4363 50.8007 67.1209 51.0414 65.797 51.016C64.4772 51.0399 63.1662 50.7975 61.9421 50.3034C60.7181 49.8093 59.6062 49.0736 58.6728 48.1402C57.7394 47.2069 57.0037 46.0949 56.5096 44.8709C56.0155 43.6469 55.7731 42.3358 55.797 41.016C55.7797 39.698 56.0265 38.3899 56.5229 37.1688C57.0193 35.9477 57.7552 34.8384 58.6873 33.9063C59.6194 32.9743 60.7287 32.2383 61.9497 31.7419C63.1708 31.2455 64.479 30.9987 65.797 31.016C67.1191 30.9972 68.4316 31.2425 69.6577 31.7374C70.8838 32.2323 71.9988 32.9669 72.9374 33.8983C73.8759 34.8296 74.6192 35.9388 75.1236 37.161C75.6281 38.3832 75.8835 39.6938 75.875 41.016ZM71.422 41.016C71.4647 40.2476 71.3514 39.4785 71.0888 38.7551C70.8263 38.0316 70.4199 37.3689 69.8943 36.8067C69.3687 36.2445 68.7347 35.7947 68.0305 35.4841C67.3263 35.1736 66.5666 35.009 65.797 35C65.0274 35.009 64.2677 35.1736 63.5635 35.4841C62.8593 35.7947 62.2253 36.2445 61.6997 36.8067C61.1741 37.3689 60.7677 38.0316 60.5052 38.7551C60.2426 39.4785 60.1293 40.2476 60.172 41.016C60.135 41.787 60.2517 42.5576 60.5155 43.283C60.7792 44.0083 61.1846 44.674 61.7081 45.2411C62.2316 45.8083 62.8628 46.2656 63.5648 46.5865C64.2667 46.9073 65.0256 47.0853 65.797 47.11C66.5684 47.0853 67.3273 46.9073 68.0292 46.5865C68.7312 46.2656 69.3624 45.8083 69.8859 45.2411C70.4094 44.674 70.8148 44.0083 71.0785 43.283C71.3423 42.5576 71.459 41.787 71.422 41.016Z" fill="#EA4335"/>
<path id="Vector_3" d="M97.75 41.016C97.7651 42.34 97.5142 43.6536 97.0121 44.8788C96.51 46.104 95.7669 47.2159 94.827 48.1485C93.8871 49.0812 92.7695 49.8155 91.5404 50.3081C90.3113 50.8007 88.9959 51.0414 87.672 51.016C86.3522 51.0399 85.0412 50.7975 83.8171 50.3034C82.5931 49.8093 81.4812 49.0736 80.5478 48.1402C79.6144 47.2069 78.8787 46.0949 78.3846 44.8709C77.8905 43.6469 77.6481 42.3358 77.672 41.016C77.6547 39.698 77.9015 38.3899 78.3979 37.1688C78.8943 35.9477 79.6302 34.8384 80.5623 33.9063C81.4944 32.9743 82.6037 32.2383 83.8247 31.7419C85.0458 31.2455 86.354 30.9987 87.672 31.016C88.9941 30.9972 90.3066 31.2425 91.5327 31.7374C92.7588 32.2323 93.8738 32.9669 94.8124 33.8983C95.7509 34.8296 96.4942 35.9388 96.9986 37.161C97.5031 38.3832 97.7585 39.6938 97.75 41.016ZM93.297 41.016C93.3397 40.2476 93.2264 39.4785 92.9638 38.7551C92.7013 38.0316 92.2949 37.3689 91.7693 36.8067C91.2437 36.2445 90.6097 35.7947 89.9055 35.4841C89.2013 35.1736 88.4416 35.009 87.672 35C86.9024 35.009 86.1427 35.1736 85.4385 35.4841C84.7343 35.7947 84.1003 36.2445 83.5747 36.8067C83.0491 37.3689 82.6427 38.0316 82.3802 38.7551C82.1176 39.4785 82.0043 40.2476 82.047 41.016C82.01 41.787 82.1267 42.5576 82.3905 43.283C82.6542 44.0083 83.0596 44.674 83.5831 45.2411C84.1066 45.8083 84.7378 46.2656 85.4398 46.5865C86.1417 46.9073 86.9006 47.0853 87.672 47.11C88.4434 47.0853 89.2023 46.9073 89.9042 46.5865C90.6062 46.2656 91.2374 45.8083 91.7609 45.2411C92.2844 44.674 92.6898 44.0083 92.9535 43.283C93.2173 42.5576 93.334 41.787 93.297 41.016Z" fill="#FBBC04"/>
<path id="Vector_4" d="M118.688 31.6411V49.6101C118.688 56.9541 114.313 60.0011 109.157 60.0011C107.26 60.0068 105.406 59.4442 103.832 58.3858C102.258 57.3274 101.038 55.8218 100.328 54.0631L104.156 52.5011C104.542 53.5268 105.222 54.4154 106.112 55.0549C107.002 55.6945 108.061 56.0564 109.156 56.0951C112.515 56.0951 114.547 53.9861 114.547 50.2361V48.7501H114.391C113.726 49.4946 112.905 50.0836 111.987 50.4752C111.069 50.8669 110.076 51.0515 109.078 51.0161C106.514 50.9167 104.089 49.8275 102.312 47.9772C100.534 46.1269 99.5433 43.6597 99.547 41.0941C99.547 35.4691 104.156 31.0161 109.078 31.0161C110.073 30.9977 111.061 31.1901 111.976 31.5807C112.892 31.9712 113.715 32.551 114.39 33.2821H114.547V31.6411H118.688ZM114.86 41.0941C114.86 37.5781 112.516 35.0001 109.469 35.0001C108.704 35.0333 107.953 35.2176 107.259 35.5423C106.565 35.8671 105.943 36.3259 105.427 36.8924C104.911 37.4589 104.513 38.1217 104.255 38.8429C103.996 39.564 103.883 40.3291 103.922 41.0941C103.891 41.8534 104.01 42.6114 104.272 43.3248C104.534 44.0381 104.934 44.6929 105.449 45.2516C105.964 45.8102 106.584 46.262 107.274 46.5809C107.964 46.8998 108.71 47.0796 109.469 47.1101C112.516 47.1101 114.86 44.5321 114.86 41.0941Z" fill="#4285F4"/>
<path id="Vector_5" d="M121.734 21.172H126.109V50.472H121.734V21.172Z" fill="#34A853"/>
<path id="Vector_6" d="M143.063 44.297L146.501 46.641C145.569 47.9961 144.321 49.1031 142.864 49.8656C141.407 50.628 139.785 51.023 138.141 51.016C136.825 51.0382 135.519 50.7942 134.3 50.2985C133.081 49.8028 131.975 49.0658 131.048 48.1317C130.121 47.1976 129.392 46.0857 128.906 44.8628C128.42 43.64 128.186 42.3315 128.219 41.016C128.219 35.079 132.519 31.016 137.672 31.016C142.825 31.016 145.406 35.157 146.188 37.422L146.657 38.516L133.297 44.063C133.698 45.0035 134.377 45.7991 135.243 46.3436C136.108 46.888 137.119 47.1554 138.141 47.11C139.137 47.1169 140.116 46.8605 140.981 46.3666C141.845 45.8728 142.563 45.1581 143.063 44.297ZM132.594 40.704L141.5 37.032C141.166 36.3556 140.639 35.7938 139.985 35.418C139.331 35.0423 138.58 34.8696 137.828 34.922C137.1 34.9452 136.385 35.1147 135.724 35.4205C135.064 35.7262 134.472 36.1619 133.983 36.7015C133.495 37.2412 133.12 37.8737 132.881 38.5614C132.643 39.249 132.545 39.9777 132.594 40.704Z" fill="#EA4335"/>
</g>
</g>
</g>
</svg>
