<svg width="41" height="35" viewBox="0 0 41 35" fill="none" xmlns="http://www.w3.org/2000/svg">
<path id="Icon open-headphones" d="M20.353 0.00024997C16.3432 -0.0227467 12.4873 1.54181 9.62716 4.35226C6.76706 7.16271 5.13522 10.9907 5.088 15.0002V20.0002H2.544C2.2128 19.9973 1.88428 20.0597 1.57718 20.1838C1.27009 20.3078 0.99044 20.4912 0.754205 20.7233C0.51797 20.9555 0.329776 21.2319 0.200369 21.5368C0.0709622 21.8417 0.00287651 22.1691 0 22.5002L0 32.5003C0.00287651 32.8314 0.0709622 33.1588 0.200369 33.4637C0.329776 33.7686 0.51797 34.045 0.754205 34.2772C0.99044 34.5093 1.27009 34.6926 1.57718 34.8167C1.88428 34.9408 2.2128 35.0032 2.544 35.0003H7.632C7.9632 35.0032 8.29172 34.9408 8.59882 34.8167C8.90591 34.6926 9.18556 34.5093 9.42179 34.2772C9.65803 34.045 9.84622 33.7686 9.97563 33.4637C10.105 33.1588 10.1731 32.8314 10.176 32.5003V15.0002C10.1832 13.6741 10.4526 12.3625 10.9687 11.1409C11.4849 9.91933 12.2376 8.81192 13.1835 7.88245C14.1295 6.95298 15.2499 6.21981 16.4804 5.72516C17.7108 5.2305 19.0269 4.98414 20.353 5.00025C21.6791 4.98414 22.9952 5.2305 24.2256 5.72516C25.4561 6.21981 26.5765 6.95298 27.5225 7.88245C28.4684 8.81192 29.2211 9.91933 29.7373 11.1409C30.2534 12.3625 30.5228 13.6741 30.53 15.0002V32.5003C30.5329 32.8314 30.601 33.1588 30.7304 33.4637C30.8598 33.7686 31.048 34.045 31.2842 34.2772C31.5204 34.5093 31.8001 34.6926 32.1072 34.8167C32.4143 34.9408 32.7428 35.0032 33.074 35.0003H38.162C38.4932 35.0032 38.8217 34.9408 39.1288 34.8167C39.4359 34.6926 39.7156 34.5093 39.9518 34.2772C40.188 34.045 40.3762 33.7686 40.5056 33.4637C40.635 33.1588 40.7031 32.8314 40.706 32.5003V22.5002C40.7031 22.1691 40.635 21.8417 40.5056 21.5368C40.3762 21.2319 40.188 20.9555 39.9518 20.7233C39.7156 20.4912 39.4359 20.3078 39.1288 20.1838C38.8217 20.0597 38.4932 19.9973 38.162 20.0002H35.618V15.0002C35.5708 10.9907 33.9389 7.16271 31.0788 4.35226C28.2187 1.54181 24.3628 -0.0227467 20.353 0.00024997Z" fill="#A983EB"/>
</svg>
