<svg width="240" height="80" viewBox="0 0 240 80" fill="none" xmlns="http://www.w3.org/2000/svg">
<g id="helpscout">
<path id="helpscout [Frame Background]" d="M240 0H0V80H240V0Z" fill="white"/>
<g id="helpscout-logo 1">
<g id="Group">
<path id="Vector" fill-rule="evenodd" clip-rule="evenodd" d="M74.566 27.3949C76.0428 27.1009 77.5632 27.1009 79.04 27.3949L79.103 27.4159V52.0579L79.04 52.0789C77.5632 52.373 76.0428 52.373 74.566 52.0789L74.503 52.0579V42.0579H64.355V52.0579L64.292 52.0789C63.5519 52.2285 62.7991 52.3059 62.044 52.3099C61.2958 52.307 60.5498 52.2296 59.817 52.0789L59.755 52.0579V27.4159L59.818 27.3949C61.293 27.0799 62.818 27.0799 64.293 27.3949L64.355 27.4159V38.1299H74.503V27.4159L74.566 27.3949ZM90.343 34.3279C91.48 34.269 92.6165 34.452 93.6775 34.8649C94.7385 35.2777 95.6999 35.911 96.498 36.7229C98.098 38.5089 98.746 41.1559 98.389 44.4119V44.4959H86.036C86.078 47.8159 87.528 49.4119 90.448 49.4119C92.548 49.4119 93.977 48.3829 94.271 46.6599V46.5969H94.334C95.5942 46.3927 96.8853 46.5008 98.094 46.9119L98.157 46.9329V46.9959C97.842 49.8959 95.321 52.8149 90.405 52.8149C87.527 52.8149 85.321 51.9149 83.871 50.1679C82.4152 48.1927 81.7014 45.7679 81.855 43.3189C81.855 37.6889 85.028 34.3279 90.343 34.3279ZM90.255 37.5209C87.65 37.5209 86.116 39.1209 85.99 41.9109H94.204C94.2672 41.3249 94.2104 40.7321 94.0371 40.1688C93.8638 39.6054 93.5776 39.0832 93.196 38.6339C92.8099 38.2545 92.349 37.9595 91.8427 37.7679C91.3363 37.5763 90.7956 37.4922 90.255 37.5209ZM101.414 27.3949C102.796 27.0802 104.232 27.0802 105.614 27.3949L105.677 27.4159V52.0579L105.614 52.0789C104.231 52.3866 102.797 52.3866 101.414 52.0789L101.351 52.0579V27.4159L101.414 27.3949ZM117.821 34.3279C122.863 34.3279 125.741 37.7099 125.741 43.5929C125.741 49.3489 122.841 52.7929 117.989 52.7929C116.298 52.8032 114.641 52.3213 113.22 51.4059V59.6199L113.155 59.6429C111.772 59.9506 110.338 59.9506 108.955 59.6429L108.892 59.6219V35.1049L108.955 35.0839C109.91 34.7688 110.941 34.7688 111.896 35.0839L111.938 35.1049L112.19 36.4049C113.794 35.1237 115.768 34.3942 117.82 34.3249L117.821 34.3279ZM113.155 39.1799V47.9799C114.236 48.789 115.544 49.2371 116.894 49.2609C119.894 49.2609 121.494 47.3069 121.494 43.6519C121.494 39.9119 119.876 37.8749 116.935 37.8749C115.57 37.9055 114.249 38.3598 113.154 39.1749L113.155 39.1799ZM144.226 38.7799C147.65 40.1039 151.201 41.4689 151.226 45.6079C151.184 51.8479 145.302 52.7929 141.726 52.7929C138.092 52.7929 135.256 51.8479 133.533 49.9989C132.896 49.3159 132.41 48.5066 132.106 47.6235C131.802 46.7405 131.687 45.8033 131.768 44.8729V44.8099L131.831 44.7889C133.302 44.4527 134.827 44.4313 136.306 44.7259L136.369 44.7469V44.8099C136.29 45.296 136.321 45.7936 136.459 46.2661C136.598 46.7387 136.84 47.1743 137.169 47.5409C137.774 48.082 138.482 48.4935 139.252 48.7501C140.022 49.0067 140.836 49.103 141.644 49.0329C143.097 49.1732 144.546 48.7356 145.678 47.8149C145.957 47.5184 146.172 47.1677 146.309 46.7846C146.447 46.4015 146.504 45.9942 146.478 45.5879C146.436 43.8019 144.44 43.1299 141.121 41.9749C140.449 41.7439 139.671 41.4749 138.873 41.1749L138.495 41.0489C136.058 40.1669 131.962 38.6959 132.003 34.2629C132.064 29.8109 135.655 27.1429 141.623 27.1429H141.728C144.942 27.1639 147.484 28.0429 149.06 29.7269C149.706 30.4228 150.2 31.2453 150.51 32.1422C150.821 33.0391 150.942 33.9908 150.866 34.9369V34.9999L150.803 35.0209C149.322 35.3796 147.782 35.4154 146.286 35.1259L146.223 35.1049V35.0429C146.291 34.5215 146.248 33.9916 146.096 33.4882C145.943 32.9849 145.686 32.5195 145.341 32.1229C144.832 31.6546 144.232 31.2972 143.578 31.0734C142.924 30.8496 142.23 30.7643 141.541 30.8229C140.825 30.7703 140.105 30.8598 139.423 31.0864C138.742 31.3129 138.111 31.672 137.569 32.1429C137.291 32.4233 137.074 32.7587 136.933 33.1278C136.792 33.4969 136.729 33.8914 136.75 34.2859C136.813 36.0929 138.83 36.8279 142.17 38.0249C142.821 38.2559 143.494 38.5079 144.229 38.7809L144.226 38.7799ZM161.999 37.8799C158.974 37.8799 157.566 39.6869 157.566 43.5519C157.566 47.4169 158.974 49.2239 161.999 49.2239C162.776 49.2239 165.381 49.0349 165.78 46.3459V46.2829H165.843C167.13 46.0275 168.461 46.1071 169.709 46.5139L169.772 46.5349V46.5979C169.632 48.1953 168.906 49.6844 167.734 50.7789C166.125 52.1726 164.042 52.8947 161.915 52.7959C156.369 52.7959 153.302 49.5189 153.302 43.5729C153.302 37.6069 156.39 34.3079 162.002 34.3079C164.092 34.2117 166.141 34.9097 167.737 36.2619C168.969 37.4123 169.714 38.9913 169.817 40.6739V40.7369L169.754 40.7579C168.484 41.1204 167.15 41.1992 165.846 40.9889H165.783V40.9259C165.636 39.7919 164.964 37.8799 162.002 37.8799H161.999ZM180.444 34.3299C185.969 34.3299 188.994 37.6069 188.994 43.5949C188.994 49.5399 185.969 52.8169 180.444 52.8169C174.944 52.8169 171.894 49.5399 171.894 43.5939C171.894 37.6279 174.919 34.3299 180.444 34.3299ZM184.834 43.5739C184.834 39.7509 183.405 37.8809 180.444 37.8809C177.444 37.8809 176.053 39.6879 176.053 43.5739C176.053 47.3969 177.482 49.2459 180.444 49.2459C183.406 49.2459 184.836 47.3739 184.836 43.5709L184.834 43.5739ZM202.817 35.1079C204.194 34.7513 205.64 34.7513 207.017 35.1079L207.08 35.1289V52.0579L207.017 52.0789C206.013 52.3519 204.954 52.3519 203.95 52.0789L203.908 52.0579L203.488 50.1249C202.725 50.9366 201.809 51.5886 200.792 52.0431C199.775 52.4975 198.678 52.7452 197.564 52.7719C193.635 52.7719 191.364 50.3769 191.364 46.1719V35.1259L191.427 35.1049C192.807 34.7692 194.247 34.7692 195.627 35.1049L195.69 35.1259V45.2099C195.69 47.9829 196.572 49.1599 198.631 49.1599C200.178 49.1265 201.653 48.5025 202.755 47.4159V35.1259L202.817 35.1079ZM220.317 48.7629C220.636 49.8976 220.629 51.0993 220.296 52.2299L220.275 52.2719H220.233C219.189 52.4901 218.127 52.6096 217.061 52.6289C215.842 52.7129 214.632 52.3715 213.637 51.6629C212.166 50.4449 212.037 48.3019 212.037 46.2009L211.995 38.6589H209.831L209.81 38.5959C209.537 37.4425 209.537 36.2413 209.81 35.0879L209.831 35.0249H211.995L211.955 30.3569L212.018 30.3359C213.4 30.0212 214.836 30.0212 216.218 30.3359L216.281 30.3569V35.0209H219.705L219.726 35.0839C219.957 36.2348 219.957 37.4201 219.726 38.5709L219.705 38.6339H216.281V46.4909C216.233 46.8705 216.27 47.256 216.39 47.6193C216.51 47.9826 216.709 48.3146 216.974 48.5909C217.562 49.0529 218.528 49.0909 220.209 48.6959L220.293 48.6749L220.317 48.7629Z" fill="#213743"/>
<path id="Vector_2" fill-rule="evenodd" clip-rule="evenodd" d="M33.071 31.793L21.526 43.586C20.0097 41.9835 19.1142 39.8932 19 37.69C19.0679 35.4752 19.9701 33.3678 21.526 31.79L33.252 20C34.7569 21.5962 35.5966 23.7062 35.6 25.9C35.5325 28.1147 34.6306 30.2221 33.075 31.8L33.071 31.793ZM38.15 48.122L49.822 36.329C51.31 37.9378 52.154 40.0379 52.193 42.229C52.1224 44.4486 51.2096 46.558 49.64 48.129L37.967 59.915C36.4494 58.3251 35.6006 56.2129 35.596 54.015C35.6663 51.7954 36.5792 49.6858 38.149 48.115L38.15 48.122ZM37.864 31.793L41.31 28.346L49.835 20C51.341 21.5584 52.186 23.6388 52.193 25.806C52.1203 27.9948 51.2116 30.0726 49.654 31.612L41.31 39.958L37.863 43.4L32.963 48.3L29.52 51.751L21.358 59.915C19.8519 58.3567 19.0069 56.2762 19 54.109C19.0721 51.9192 19.9807 49.8403 21.539 48.3L29.7 40.139L32.965 36.692L37.864 31.793Z" fill="#1292EE"/>
</g>
</g>
</g>
</svg>
