<svg width="160" height="80" viewBox="0 0 160 80" fill="none" xmlns="http://www.w3.org/2000/svg">
<g id="intuit">
<path id="intuit [Frame Background]" d="M160 0H0V80H160V0Z" fill="white"/>
<g id="intuit_2">
<path id="Vector" d="M132.153 53.4551L132.613 54.2031H132.268L131.868 53.5131H131.638V54.2031H131.348V52.4781H131.923C132.268 52.4781 132.555 52.6511 132.555 52.9961C132.55 53.1068 132.508 53.2126 132.436 53.2962C132.363 53.3798 132.264 53.4362 132.155 53.4561L132.153 53.4551ZM131.813 53.2251C131.986 53.2251 132.213 53.2251 132.213 52.9951C132.213 52.8221 132.04 52.7651 131.868 52.7651H131.578V53.2251H131.813ZM133.423 53.3981C133.414 53.8022 133.246 54.1864 132.955 54.4673C132.664 54.7481 132.274 54.9029 131.87 54.8981C131.668 54.9057 131.467 54.8726 131.278 54.8007C131.09 54.7287 130.918 54.6195 130.772 54.4794C130.627 54.3393 130.511 54.1714 130.432 53.9856C130.353 53.7998 130.313 53.5999 130.313 53.3981C130.308 53.1909 130.344 52.9847 130.42 52.7918C130.495 52.5988 130.609 52.423 130.754 52.2745C130.898 52.1261 131.071 52.0082 131.262 51.9277C131.453 51.8472 131.658 51.8057 131.866 51.8057C132.073 51.8057 132.278 51.8472 132.469 51.9277C132.66 52.0082 132.833 52.1261 132.977 52.2745C133.122 52.423 133.236 52.5988 133.311 52.7918C133.387 52.9847 133.423 53.1909 133.418 53.3981H133.423ZM133.136 53.3981C133.133 53.0626 132.998 52.7418 132.761 52.505C132.523 52.2683 132.201 52.1346 131.866 52.1331C131.531 52.1359 131.211 52.2701 130.975 52.5068C130.738 52.7434 130.604 53.0635 130.601 53.3981C130.604 53.7327 130.738 54.0528 130.975 54.2894C131.211 54.526 131.531 54.6602 131.866 54.6631C132.034 54.6714 132.203 54.6443 132.36 54.5837C132.517 54.5231 132.66 54.4302 132.779 54.311C132.898 54.1918 132.991 54.0491 133.052 53.8918C133.112 53.7346 133.139 53.5664 133.131 53.3981H133.136Z" fill="#0077C5"/>
<path id="Vector_2" d="M27.675 33.963H32.85V54.6631H27.675V33.963ZM57.175 41.725V54.6621H51.997V43.1621C51.997 40.6901 51.422 37.642 48.087 37.642C44.809 37.642 43.257 40.517 43.257 43.2771V54.6051H38.082V33.905H42.969V37.24H43.084C43.6818 36.0492 44.603 35.0508 45.742 34.3593C46.8809 33.6678 48.1917 33.3111 49.524 33.33C54.929 33.33 57.171 37.5301 57.171 41.725H57.175ZM94.087 33.963H99.262V54.6631H94.375V51.3281H94.26C93.6622 52.5189 92.741 53.5173 91.602 54.2088C90.4631 54.9003 89.1523 55.257 87.82 55.2381C82.42 55.2381 80.173 51.0981 80.173 46.9011V33.963H85.348V45.4631C85.348 47.9351 85.923 50.9831 89.258 50.9831C92.536 50.9831 94.088 48.1081 94.088 45.3481L94.087 33.963ZM104.552 33.963H109.727V54.6631H104.553L104.552 33.963ZM59.818 33.905H76.608V38.505H70.8V54.6621H65.625V38.505H59.818V33.905ZM65.108 28.1551C65.109 27.5421 65.2916 26.9433 65.6329 26.4341C65.9741 25.925 66.4586 25.5285 67.0251 25.2946C67.5917 25.0607 68.2148 25 68.8158 25.1202C69.4169 25.2404 69.9687 25.536 70.4018 25.9698C70.8348 26.4035 71.1296 26.9559 71.2488 27.5571C71.368 28.1583 71.3063 28.7814 71.0715 29.3475C70.8368 29.9137 70.4394 30.3975 69.9297 30.738C69.4201 31.0784 68.8209 31.26 68.208 31.2601C67.8001 31.2612 67.396 31.1817 67.019 31.026C66.6419 30.8704 66.2994 30.6416 66.0112 30.353C65.7229 30.0644 65.4947 29.7216 65.3395 29.3444C65.1843 28.9672 65.1063 28.5629 65.108 28.1551ZM113.351 33.905H130.141V38.505H124.333V54.7201H119.158V38.563H113.35V33.963L113.351 33.905ZM118.641 28.1551C118.641 27.5409 118.823 26.9405 119.164 26.4299C119.506 25.9193 119.991 25.5213 120.558 25.2863C121.125 25.0513 121.75 24.9899 122.352 25.1098C122.954 25.2297 123.508 25.5255 123.942 25.9598C124.376 26.3942 124.672 26.9475 124.791 27.5499C124.911 28.1523 124.85 28.7766 124.614 29.344C124.379 29.9113 123.981 30.3962 123.47 30.7372C122.96 31.0783 122.359 31.2602 121.745 31.2601C120.923 31.2538 120.137 30.9246 119.556 30.3437C118.975 29.7627 118.646 28.9766 118.64 28.1551H118.641Z" fill="#0077C5"/>
</g>
</g>
</svg>
