<svg width="26" height="38" viewBox="0 0 26 38" fill="none" xmlns="http://www.w3.org/2000/svg">
<path id="Icon awesome-microphone-alt" d="M24.818 14.3636H23.636C23.4807 14.3635 23.327 14.394 23.1835 14.4533C23.04 14.5127 22.9097 14.5998 22.7999 14.7095C22.6901 14.8193 22.6031 14.9497 22.5437 15.0932C22.4844 15.2366 22.4539 15.3904 22.454 15.5456V19.0906C22.4526 20.4116 22.1748 21.7177 21.6383 22.9249C21.1018 24.132 20.3186 25.2135 19.339 26.0997C18.3594 26.986 17.2052 27.6574 15.9505 28.0707C14.6958 28.484 13.3685 28.6301 12.054 28.4996C9.674 28.1966 7.48954 27.0259 5.9192 25.212C4.34887 23.3981 3.50311 21.0685 3.544 18.6696V15.5456C3.54413 15.3904 3.51365 15.2366 3.45429 15.0932C3.39494 14.9497 3.30788 14.8193 3.19809 14.7095C3.08831 14.5998 2.95795 14.5127 2.81449 14.4533C2.67102 14.394 2.51726 14.3635 2.362 14.3636H1.182C1.02674 14.3635 0.872979 14.394 0.729513 14.4533C0.586047 14.5127 0.455692 14.5998 0.345907 14.7095C0.236122 14.8193 0.149061 14.9497 0.0897069 15.0932C0.0303525 15.2366 -0.000131096 15.3904 4.23768e-07 15.5456V18.5116C4.23768e-07 25.1326 4.725 31.0356 11.227 31.9316V34.4536H7.091C6.93574 34.4535 6.78198 34.484 6.63851 34.5433C6.49505 34.6027 6.36469 34.6898 6.25491 34.7995C6.14512 34.9093 6.05806 35.0397 5.99871 35.1832C5.93935 35.3266 5.90887 35.4804 5.909 35.6356V36.8176C5.90887 36.9729 5.93935 37.1267 5.99871 37.2701C6.05806 37.4136 6.14512 37.5439 6.25491 37.6537C6.36469 37.7635 6.49505 37.8506 6.63851 37.9099C6.78198 37.9693 6.93574 37.9998 7.091 37.9996H18.909C19.0643 37.9998 19.218 37.9693 19.3615 37.9099C19.505 37.8506 19.6353 37.7635 19.7451 37.6537C19.8549 37.5439 19.9419 37.4136 20.0013 37.2701C20.0606 37.1267 20.0911 36.9729 20.091 36.8176V35.6366C20.0911 35.4814 20.0606 35.3276 20.0013 35.1842C19.9419 35.0407 19.8549 34.9103 19.7451 34.8005C19.6353 34.6908 19.505 34.6037 19.3615 34.5443C19.218 34.485 19.0643 34.4545 18.909 34.4546H14.773V31.9596C17.8816 31.5289 20.7298 29.9893 22.7929 27.6245C24.856 25.2597 25.995 22.2289 26 19.0906V15.5456C26.0001 15.3904 25.9696 15.2366 25.9103 15.0932C25.8509 14.9497 25.7639 14.8193 25.6541 14.7095C25.5443 14.5998 25.414 14.5127 25.2705 14.4533C25.127 14.394 24.9733 14.3635 24.818 14.3636ZM13 26.1816C14.8807 26.1816 16.6843 25.4346 18.0141 24.1047C19.3439 22.7749 20.091 20.9713 20.091 19.0906H13.791C13.356 19.0906 13.003 18.8266 13.003 18.4996V17.3176C13.003 16.9916 13.356 16.7266 13.791 16.7266H20.091V14.3636H13.791C13.356 14.3636 13.003 14.0996 13.003 13.7726V12.5906C13.003 12.2646 13.356 11.9996 13.791 11.9996H20.091V9.63664H13.791C13.356 9.63664 13.003 9.37264 13.003 9.04564V7.86364C13.003 7.53764 13.356 7.27264 13.791 7.27264H20.091C20.091 6.34144 19.9076 5.41935 19.5512 4.55903C19.1949 3.69871 18.6726 2.91701 18.0141 2.25855C17.3556 1.60009 16.5739 1.07777 15.7136 0.721411C14.8533 0.365055 13.9312 0.181641 13 0.181641C12.0688 0.181641 11.1467 0.365055 10.2864 0.721411C9.42607 1.07777 8.64437 1.60009 7.98591 2.25855C7.32745 2.91701 6.80513 3.69871 6.44877 4.55903C6.09241 5.41935 5.909 6.34144 5.909 7.27264V19.0906C5.909 20.9713 6.65609 22.7749 7.98591 24.1047C9.31573 25.4346 11.1193 26.1816 13 26.1816Z" fill="#20B486"/>
</svg>
