<svg width="160" height="80" viewBox="0 0 160 80" fill="none" xmlns="http://www.w3.org/2000/svg">
<g id="Paychex">
<path id="Paychex [Frame Background]" d="M160 0H0V80H160V0Z" fill="white"/>
<g id="Group">
<path id="Vector" d="M25.96 39.303H28.149C30.487 39.303 31.283 38.403 31.283 37.164C31.283 35.721 29.989 35.472 28.746 35.472H26.756L25.96 39.303ZM21.98 30.597H31.38C34.866 30.597 37.1 32.537 37.1 36.716C37.1 40.547 33.866 43.83 28.891 43.83H24.965L23.771 49.552H18L21.98 30.597Z" fill="#004B8D"/>
<path id="Vector_2" d="M41.283 42.786H44.915L44.215 37.114L41.283 42.786ZM42.676 30.597H48.447L51.331 49.552H45.612L45.312 46.865H39.144L37.701 49.552H31.731L42.676 30.597Z" fill="#004B8D"/>
<path id="Vector_3" d="M53.772 42.587L49.692 30.597H55.563L57.354 37.662L61.981 30.597H68.847L59.592 42.537L58.15 49.552H52.329L53.772 42.587Z" fill="#004B8D"/>
<path id="Vector_4" d="M82.776 42.338C82.428 44.278 80.935 50 73.025 50C67.503 49.999 64.866 46.417 64.866 41.343C64.866 35.223 68.697 30.099 75.166 30.099C79.395 30.099 83.176 31.94 83.275 37.611H77.752C77.802 35.82 76.952 34.825 75.165 34.825C71.931 34.825 70.737 38.556 70.737 41.243C70.737 42.835 71.137 45.223 73.822 45.223C74.6298 45.2246 75.4091 44.9246 76.0073 44.3817C76.6055 43.8388 76.9795 43.0922 77.056 42.288L82.776 42.338Z" fill="#004B8D"/>
<path id="Vector_5" d="M86.159 30.597H92.029L90.637 37.164H95.96L97.353 30.597H103.229L99.249 49.552H93.423L94.965 42.04H89.642L88.05 49.552H82.229L86.159 30.597Z" fill="#004B8D"/>
<path id="Vector_6" d="M104.766 30.597H120.438L119.438 35.473H109.592L109.092 37.811H118.246L117.301 42.338H108.149L107.649 44.676H117.699L116.699 49.552H100.786L104.766 30.597Z" fill="#004B8D"/>
<path id="Vector_7" d="M124.463 39.502L120.09 30.597H126.463L128.304 35.522L132.08 30.597H138.995L131.085 39.502L135.712 49.552H129.145L127.055 44.278L122.627 49.552H115.463L124.463 39.502Z" fill="#004B8D"/>
<path id="Vector_8" d="M140.936 32.687C141.097 32.6876 141.257 32.6554 141.405 32.5924C141.554 32.5295 141.688 32.437 141.799 32.3207C141.911 32.2044 141.998 32.0666 142.055 31.9158C142.112 31.7649 142.137 31.6041 142.13 31.443C142.136 31.1201 142.013 30.8081 141.789 30.5751C141.566 30.3422 141.259 30.2074 140.936 30.2C140.775 30.1994 140.615 30.2316 140.467 30.2945C140.319 30.3574 140.185 30.4497 140.073 30.5659C139.961 30.6821 139.874 30.8198 139.818 30.9705C139.761 31.1213 139.735 31.282 139.742 31.443C139.736 31.7661 139.858 32.0784 140.082 32.3115C140.306 32.5446 140.613 32.6796 140.936 32.687ZM140.936 30C141.319 30.0003 141.686 30.1524 141.956 30.4229C142.227 30.6935 142.379 31.0604 142.379 31.443C142.383 31.6336 142.349 31.8231 142.277 32C142.206 32.1769 142.1 32.3376 141.965 32.4725C141.831 32.6073 141.67 32.7134 141.493 32.7845C141.316 32.8556 141.127 32.8901 140.936 32.886C140.745 32.8901 140.556 32.8556 140.379 32.7845C140.202 32.7134 140.041 32.6073 139.907 32.4725C139.772 32.3376 139.666 32.1769 139.595 32C139.523 31.8231 139.489 31.6336 139.493 31.443C139.493 31.0604 139.645 30.6935 139.916 30.4229C140.186 30.1524 140.553 30.0003 140.936 30ZM140.393 30.647H140.993C141.393 30.647 141.593 30.796 141.593 31.147C141.597 31.207 141.589 31.2672 141.568 31.3236C141.547 31.38 141.514 31.4312 141.472 31.4737C141.429 31.5163 141.378 31.5491 141.322 31.57C141.265 31.591 141.205 31.5995 141.145 31.595L141.645 32.341H141.345L140.897 31.595H140.637V32.295H140.393V30.647ZM140.642 30.847V31.394H140.891C141.14 31.394 141.339 31.344 141.339 31.094C141.339 30.894 141.19 30.845 140.991 30.845H140.637L140.642 30.847Z" fill="#004B8D"/>
</g>
</g>
</svg>
