<svg width="36" height="36" viewBox="0 0 36 36" fill="none" xmlns="http://www.w3.org/2000/svg">
<path id="Icon awesome-pencil-ruler" d="M7.70001 17.1603L17.159 7.70135L14.059 4.60135L9.72001 8.93435C9.66828 8.98611 9.60686 9.02718 9.53926 9.05519C9.47165 9.08321 9.39919 9.09763 9.32601 9.09763C9.25283 9.09763 9.18037 9.08321 9.11276 9.05519C9.04516 9.02718 8.98374 8.98611 8.93201 8.93435L8.14401 8.14635C8.09225 8.09462 8.05118 8.0332 8.02317 7.9656C7.99515 7.89799 7.98073 7.82553 7.98073 7.75235C7.98073 7.67917 7.99515 7.60671 8.02317 7.5391C8.05118 7.4715 8.09225 7.41008 8.14401 7.35835L12.48 3.02035L10.115 0.654349C9.90793 0.447229 9.66208 0.28293 9.39149 0.170835C9.12091 0.0587401 8.8309 0.00104521 8.53801 0.00104521C8.24513 0.00104521 7.95511 0.0587401 7.68453 0.170835C7.41394 0.28293 7.16809 0.447229 6.96101 0.654349L0.653012 6.96235C0.234958 7.3807 0.00012207 7.94792 0.00012207 8.53935C0.00012207 9.13078 0.234958 9.698 0.653012 10.1163L7.70001 17.1603ZM35.011 8.94835C35.6441 8.3149 35.9998 7.45595 35.9998 6.56035C35.9998 5.66474 35.6441 4.8058 35.011 4.17235L31.829 0.990349C31.1954 0.356856 30.336 0.000976563 29.44 0.000976562C28.544 0.000976562 27.6847 0.356856 27.051 0.990349L23.816 4.22535L31.775 12.1843L35.011 8.94835ZM22.224 5.81735L1.34201 26.7013L0.0230118 34.2514C-0.0181663 34.4875 -0.00188927 34.73 0.070467 34.9585C0.142823 35.1871 0.269132 35.3948 0.438715 35.5642C0.608298 35.7336 0.81617 35.8596 1.04476 35.9317C1.27335 36.0038 1.51594 36.0198 1.75201 35.9784L9.30701 34.6534L30.184 13.7753L22.224 5.81735ZM35.347 25.8863L32.981 23.5213L28.644 27.8583C28.5923 27.9101 28.5309 27.9512 28.4633 27.9792C28.3957 28.0072 28.3232 28.0216 28.25 28.0216C28.1768 28.0216 28.1044 28.0072 28.0368 27.9792C27.9692 27.9512 27.9077 27.9101 27.856 27.8583L27.068 27.0703C26.9637 26.9657 26.9051 26.8241 26.9051 26.6763C26.9051 26.5286 26.9637 26.3869 27.068 26.2823L31.405 21.9453L28.305 18.8453L18.839 28.3013L25.885 35.3464C26.0921 35.5535 26.3379 35.7178 26.6085 35.8299C26.8791 35.942 27.1691 35.9997 27.462 35.9997C27.7549 35.9997 28.0449 35.942 28.3155 35.8299C28.5861 35.7178 28.8319 35.5535 29.039 35.3464L35.347 29.0393C35.5541 28.8323 35.7184 28.5864 35.8305 28.3158C35.9426 28.0452 36.0003 27.7552 36.0003 27.4623C36.0003 27.1695 35.9426 26.8794 35.8305 26.6089C35.7184 26.3383 35.5541 26.0934 35.347 25.8863Z" fill="#F4AC1F"/>
</svg>
