<svg width="23" height="22" viewBox="0 0 23 22" fill="none" xmlns="http://www.w3.org/2000/svg">
<g id="span.jss107">
<g id="SVG">
<g id="Frame">
<path id="Vector" d="M11.606 0C13.7391 0 15.8242 0.632529 17.5978 1.8176C19.3714 3.00267 20.7537 4.68706 21.57 6.65776C22.3863 8.62846 22.5999 10.797 22.1838 12.889C21.7676 14.9811 20.7405 16.9028 19.2321 18.4111C17.7238 19.9195 15.8021 20.9466 13.71 21.3628C11.618 21.7789 9.44946 21.5653 7.47876 20.749C5.50806 19.9327 3.82367 18.5504 2.6386 16.7768C1.45353 15.0032 0.820999 12.9181 0.820999 10.785C0.820999 7.92464 1.95727 5.18143 3.97985 3.15885C6.00243 1.13627 8.74564 0 11.606 0Z" fill="white"/>
<path id="Vector_2" fill-rule="evenodd" clip-rule="evenodd" d="M13.193 10.6309C13.2266 10.5971 13.2454 10.5515 13.2454 10.5039C13.2454 10.4563 13.2266 10.4106 13.193 10.3769L10.361 7.54386C10.2768 7.45965 10.2295 7.34544 10.2295 7.22636C10.2295 7.10727 10.2768 6.99306 10.361 6.90886C10.4452 6.82465 10.5594 6.77734 10.6785 6.77734C10.7976 6.77734 10.9118 6.82465 10.996 6.90886L14.273 10.1859C14.3148 10.2276 14.348 10.2771 14.3707 10.3317C14.3933 10.3863 14.405 10.4448 14.405 10.5039C14.405 10.5629 14.3933 10.6214 14.3707 10.676C14.348 10.7306 14.3148 10.7801 14.273 10.8219L10.996 14.0989C10.9117 14.1832 10.7973 14.2306 10.678 14.2306C10.5587 14.2306 10.4443 14.1832 10.36 14.0989C10.2757 14.0145 10.2283 13.9001 10.2283 13.7809C10.2283 13.6616 10.2757 13.5472 10.36 13.4629L13.193 10.6309Z" fill="#A983EB"/>
</g>
</g>
</g>
</svg>
