<svg width="22" height="22" viewBox="0 0 22 22" fill="none" xmlns="http://www.w3.org/2000/svg">
<g id="span.jss107">
<g id="SVG">
<g id="Frame">
<path id="Vector" d="M10.785 0C12.9181 0 15.0032 0.632529 16.7768 1.8176C18.5504 3.00267 19.9327 4.68706 20.749 6.65776C21.5653 8.62846 21.7789 10.797 21.3628 12.889C20.9466 14.9811 19.9195 16.9028 18.4111 18.4111C16.9028 19.9195 14.9811 20.9466 12.889 21.3628C10.797 21.7789 8.62846 21.5653 6.65776 20.749C4.68706 19.9327 3.00267 18.5504 1.8176 16.7768C0.632529 15.0032 0 12.9181 0 10.785C0 7.92464 1.13627 5.18143 3.15885 3.15885C5.18143 1.13627 7.92464 0 10.785 0Z" fill="white"/>
<path id="Vector_2" fill-rule="evenodd" clip-rule="evenodd" d="M12.372 10.6309C12.4056 10.5971 12.4244 10.5515 12.4244 10.5039C12.4244 10.4563 12.4056 10.4106 12.372 10.3769L9.54 7.54386C9.45579 7.45965 9.40849 7.34544 9.40849 7.22636C9.40849 7.10727 9.45579 6.99306 9.54 6.90886C9.62421 6.82465 9.73841 6.77734 9.8575 6.77734C9.97659 6.77734 10.0908 6.82465 10.175 6.90886L13.452 10.1859C13.4938 10.2276 13.527 10.2771 13.5497 10.3317C13.5724 10.3863 13.584 10.4448 13.584 10.5039C13.584 10.5629 13.5724 10.6214 13.5497 10.676C13.527 10.7306 13.4938 10.7801 13.452 10.8219L10.175 14.0989C10.0907 14.1832 9.97627 14.2306 9.857 14.2306C9.73773 14.2306 9.62334 14.1832 9.539 14.0989C9.45466 14.0145 9.40728 13.9001 9.40728 13.7809C9.40728 13.6616 9.45466 13.5472 9.539 13.4629L12.372 10.6309Z" fill="#A983EB"/>
</g>
</g>
</g>
</svg>
