<svg width="160" height="80" viewBox="0 0 160 80" fill="none" xmlns="http://www.w3.org/2000/svg">
<g id="Salesforce">
<path id="Salesforce [Frame Background]" d="M160 0H0V80H160V0Z" fill="white"/>
<path id="Vector" d="M73.597 19.165C75.0475 17.6367 76.8389 16.4733 78.8249 15.7697C80.8109 15.0661 82.9353 14.8423 85.0243 15.1166C87.1134 15.391 89.1079 16.1556 90.8449 17.3481C92.582 18.5406 94.0123 20.1271 95.019 21.978C97.1119 21.0437 99.3791 20.5642 101.671 20.571C103.985 20.5666 106.273 21.0471 108.39 21.9816C110.506 22.916 112.403 24.2836 113.959 25.9962C115.514 27.7087 116.693 29.7283 117.42 31.9246C118.147 34.1208 118.406 36.4451 118.18 38.7475C117.954 41.05 117.247 43.2794 116.107 45.2921C114.966 47.3048 113.416 49.0561 111.557 50.433C109.698 51.81 107.571 52.7821 105.313 53.2865C103.055 53.791 100.716 53.8167 98.448 53.362C96.9504 56.0377 94.4876 58.0404 91.5627 58.9608C88.6379 59.8812 85.472 59.6499 82.712 58.314C81.6391 60.8412 79.8317 62.9877 77.5241 64.4752C75.2166 65.9627 72.5153 66.7226 69.7706 66.6563C67.0259 66.59 64.3645 65.7006 62.1314 64.1035C59.8983 62.5063 58.1966 60.275 57.247 57.699C56.3889 57.8753 55.515 57.9637 54.639 57.963C51.8251 57.9256 49.1008 56.9683 46.8821 55.2372C44.6634 53.5062 43.0721 51.0965 42.3514 48.3763C41.6306 45.656 41.8199 42.7746 42.8905 40.1721C43.961 37.5695 45.8538 35.3888 48.28 33.963C47.4627 32.1072 47.0434 30.1008 47.049 28.073C47.0586 24.983 48.0362 21.9736 49.8444 19.4679C51.6526 16.9621 54.2004 15.0859 57.13 14.1029C60.0595 13.12 63.2234 13.0796 66.177 13.9876C69.1306 14.8955 71.7255 16.7062 73.597 19.165Z" fill="#00A1E0"/>
<path id="Vector_2" d="M52.938 41L53.26 40.15C53.319 40 53.407 40.059 53.466 40.088C53.554 40.147 53.613 40.176 53.73 40.264C54.3315 40.6544 55.0349 40.8583 55.752 40.85C56.426 40.85 56.866 40.498 56.866 40V39.971C56.866 39.444 56.221 39.238 55.459 39.004L55.283 38.945C54.257 38.652 53.143 38.212 53.143 36.923V36.894C53.1526 36.5918 53.2246 36.2948 53.3545 36.0218C53.4844 35.7487 53.6693 35.5055 53.8977 35.3073C54.1261 35.1092 54.393 34.9604 54.6816 34.8703C54.9703 34.7803 55.2744 34.7509 55.575 34.784H55.722C56.5077 34.7739 57.2801 34.9875 57.949 35.4C57.9835 35.4123 58.012 35.4375 58.0284 35.4703C58.0448 35.5031 58.0479 35.541 58.037 35.576C58.008 35.664 57.744 36.338 57.715 36.426C57.656 36.573 57.51 36.485 57.51 36.485C56.8937 36.1653 56.2112 35.994 55.517 35.985C54.902 35.985 54.517 36.307 54.517 36.747V36.776C54.517 37.276 55.191 37.509 55.953 37.743L56.1 37.772C57.129 38.1 58.213 38.535 58.213 39.795V39.824C58.213 41.172 57.246 41.993 55.693 41.993C54.8987 42.0117 54.1126 41.8301 53.407 41.465C53.254 41.3876 53.1069 41.299 52.967 41.2C52.938 41.143 52.879 41.114 52.938 41ZM75.795 41L76.117 40.15C76.1216 40.1286 76.1319 40.1088 76.1468 40.0928C76.1618 40.0768 76.1808 40.0652 76.2018 40.0591C76.2229 40.0531 76.2451 40.0528 76.2663 40.0584C76.2875 40.0641 76.3067 40.0753 76.322 40.091C76.41 40.15 76.469 40.179 76.586 40.267C77.1892 40.6573 77.8946 40.8601 78.613 40.85C79.287 40.85 79.727 40.498 79.727 40V39.971C79.727 39.444 79.082 39.238 78.32 39.004L78.144 38.945C77.118 38.652 76.005 38.212 76.005 36.923V36.894C76.0146 36.5918 76.0866 36.2948 76.2165 36.0218C76.3464 35.7487 76.5313 35.5055 76.7597 35.3073C76.9881 35.1092 77.255 34.9604 77.5436 34.8703C77.8323 34.7803 78.1364 34.7509 78.437 34.784H78.584C79.3696 34.7736 80.142 34.9869 80.811 35.399C80.8455 35.4113 80.874 35.4365 80.8904 35.4693C80.9068 35.5021 80.9099 35.54 80.899 35.575C80.87 35.663 80.606 36.337 80.577 36.425C80.518 36.572 80.372 36.484 80.372 36.484C79.7557 36.1643 79.0732 35.993 78.379 35.984C77.764 35.984 77.379 36.306 77.379 36.746V36.775C77.379 37.275 78.053 37.508 78.815 37.742L78.962 37.771C79.988 38.093 81.072 38.533 81.072 39.793V39.822C81.072 41.17 80.105 41.991 78.552 41.991C77.7578 42.01 76.9717 41.8287 76.266 41.464C76.113 41.3869 75.966 41.2987 75.826 41.2C75.826 41.141 75.767 41.112 75.797 40.995L75.795 41ZM92.733 36.982C92.8627 37.44 92.9316 37.913 92.938 38.389C92.9461 38.866 92.8768 39.3411 92.733 39.796C92.6217 40.2146 92.4219 40.6043 92.147 40.939C91.875 41.2647 91.5332 41.5252 91.147 41.701C90.2423 42.0526 89.2387 42.0526 88.334 41.701C87.9431 41.5329 87.5997 41.2712 87.334 40.939C87.0591 40.6043 86.8592 40.2146 86.748 39.796C86.6183 39.338 86.5494 38.8649 86.543 38.389C86.5349 37.912 86.6041 37.4368 86.748 36.982C86.8592 36.5634 87.0591 36.1736 87.334 35.839C87.606 35.5132 87.9477 35.2528 88.334 35.077C88.778 34.8842 89.2569 34.7844 89.741 34.784C90.2265 34.7701 90.7084 34.8705 91.148 35.077C91.5388 35.245 91.8823 35.5067 92.148 35.839C92.4226 36.1737 92.622 36.5635 92.733 36.982ZM91.413 38.359C91.4452 37.746 91.3031 37.1365 91.003 36.601C90.8649 36.3974 90.676 36.2335 90.4549 36.1256C90.2339 36.0177 89.9884 35.9696 89.743 35.986C89.4971 35.9663 89.2505 36.0129 89.0288 36.1211C88.8072 36.2293 88.6187 36.395 88.483 36.601C88.1829 37.1365 88.0407 37.746 88.073 38.359C88.0449 38.9811 88.1866 39.5992 88.483 40.147C88.6326 40.3382 88.8239 40.4929 89.0422 40.5992C89.2605 40.7056 89.5001 40.7609 89.743 40.7609C89.9858 40.7609 90.2255 40.7056 90.4438 40.5992C90.6621 40.4929 90.8533 40.3382 91.003 40.147C91.3164 39.6058 91.4593 38.9827 91.413 38.359ZM103.457 40.559L103.779 41.438C103.808 41.555 103.72 41.585 103.72 41.585C103.13 41.8061 102.504 41.9153 101.874 41.907C101.4 41.9411 100.924 41.8723 100.479 41.7054C100.034 41.5385 99.6298 41.2774 99.295 40.94C98.6801 40.2136 98.3648 39.2804 98.413 38.33C98.4049 37.853 98.4741 37.3778 98.618 36.923C98.7499 36.5007 98.9697 36.1112 99.263 35.78C99.5557 35.453 99.9155 35.193 100.318 35.018C100.782 34.8224 101.28 34.7228 101.783 34.725C102.106 34.7264 102.429 34.7461 102.75 34.784C103.05 34.8333 103.344 34.9117 103.629 35.018C103.645 35.0213 103.66 35.0279 103.673 35.0372C103.686 35.0466 103.697 35.0585 103.705 35.0723C103.713 35.0861 103.719 35.1015 103.721 35.1174C103.723 35.1333 103.721 35.1495 103.717 35.165C103.6 35.517 103.512 35.751 103.395 36.044C103.336 36.191 103.248 36.132 103.248 36.132C102.804 35.986 102.338 35.9167 101.871 35.927C101.596 35.9027 101.32 35.9492 101.069 36.0621C100.817 36.1751 100.599 36.3506 100.435 36.572C100.075 37.0742 99.899 37.6844 99.935 38.301C99.8877 38.946 100.087 39.585 100.492 40.089C100.687 40.2833 100.921 40.4336 101.179 40.5297C101.437 40.6257 101.712 40.6654 101.987 40.646C102.221 40.6432 102.455 40.6235 102.687 40.587C102.903 40.5563 103.113 40.4967 103.313 40.41C103.284 40.469 103.401 40.439 103.46 40.557L103.457 40.559ZM110.113 36.718C110.304 37.3328 110.344 37.9844 110.23 38.618C110.23 38.6334 110.227 38.6488 110.222 38.6631C110.216 38.6774 110.207 38.6904 110.196 38.7013C110.185 38.7122 110.172 38.7208 110.158 38.7266C110.144 38.7324 110.128 38.7353 110.113 38.735H105.685C105.668 39.003 105.707 39.2717 105.797 39.5245C105.888 39.7772 106.03 40.0088 106.213 40.205C106.419 40.3901 106.66 40.5322 106.922 40.6227C107.183 40.7132 107.461 40.7503 107.737 40.732C108.358 40.7561 108.978 40.6462 109.553 40.41C109.588 40.4024 109.624 40.407 109.656 40.423C109.688 40.439 109.714 40.4655 109.729 40.498L110.022 41.319C110.081 41.466 110.022 41.495 109.993 41.524C109.299 41.8555 108.533 42.0068 107.766 41.964C107.217 41.9769 106.67 41.8873 106.154 41.7C105.732 41.5437 105.351 41.293 105.04 40.967C104.753 40.6422 104.534 40.2635 104.395 39.853C104.251 39.3981 104.182 38.923 104.19 38.446C104.182 37.969 104.251 37.4938 104.395 37.039C104.507 36.6217 104.707 36.2334 104.982 35.9C105.258 35.5673 105.61 35.3059 106.008 35.138C106.467 34.9286 106.969 34.8284 107.473 34.845C107.908 34.8357 108.339 34.926 108.733 35.109C109.058 35.2629 109.347 35.4825 109.583 35.754C109.831 36.0311 110.012 36.3622 110.11 36.721L110.113 36.718ZM105.713 37.656H108.849C108.837 37.2859 108.736 36.9239 108.557 36.6C108.43 36.3908 108.248 36.2203 108.031 36.1066C107.814 35.993 107.57 35.9406 107.326 35.955C107.078 35.9408 106.83 35.9931 106.608 36.1065C106.387 36.2199 106.2 36.3902 106.066 36.6C105.883 36.9265 105.763 37.2849 105.713 37.656ZM74.74 36.718C74.9155 37.3351 74.9655 37.9812 74.887 38.618C74.8873 38.6334 74.8844 38.6488 74.8786 38.6631C74.8728 38.6774 74.8642 38.6904 74.8533 38.7013C74.8424 38.7122 74.8294 38.7208 74.8151 38.7266C74.8008 38.7324 74.7854 38.7353 74.77 38.735H70.345C70.3289 39.0022 70.3673 39.2698 70.4579 39.5217C70.5485 39.7735 70.6894 40.0043 70.872 40.2C71.0779 40.3851 71.3189 40.5272 71.5807 40.6177C71.8424 40.7082 72.1196 40.7453 72.396 40.727C73.0174 40.7528 73.637 40.6447 74.213 40.41C74.248 40.4024 74.2845 40.407 74.3165 40.423C74.3485 40.439 74.3741 40.4655 74.389 40.498L74.682 41.319C74.741 41.466 74.682 41.495 74.653 41.524C73.9594 41.8555 73.1935 42.0068 72.426 41.964C71.8766 41.977 71.3296 41.8875 70.813 41.7C70.3906 41.5437 70.0096 41.293 69.699 40.967C69.4121 40.6422 69.1929 40.2635 69.054 39.853C68.9101 39.3981 68.8409 38.923 68.849 38.446C68.8409 37.969 68.9101 37.4938 69.054 37.039C69.166 36.6217 69.3662 36.2334 69.641 35.9C69.9169 35.5673 70.2688 35.3059 70.667 35.138C71.1262 34.9286 71.6276 34.8284 72.132 34.845C72.5666 34.8357 72.9976 34.926 73.392 35.109C73.7169 35.2629 74.0063 35.4825 74.242 35.754C74.4799 36.0342 74.6509 36.3649 74.742 36.721L74.74 36.718ZM70.34 37.656H73.513C73.4981 37.2852 73.3952 36.9232 73.213 36.6C73.0857 36.3908 72.9039 36.2203 72.687 36.1066C72.4701 35.993 72.2264 35.9406 71.982 35.955C71.7336 35.9408 71.4859 35.9931 71.2645 36.1065C71.043 36.2199 70.8557 36.3902 70.722 36.6C70.5161 36.918 70.3858 37.2789 70.341 37.655L70.34 37.656ZM62.579 37.421C62.579 37.421 62.931 37.45 63.312 37.509V37.333C63.312 36.747 63.195 36.454 62.96 36.278C62.638 36.0697 62.259 35.9673 61.876 35.985C61.2079 35.9967 60.5494 36.1465 59.942 36.425C59.9266 36.4417 59.9056 36.452 59.883 36.454C59.883 36.454 59.766 36.483 59.736 36.395L59.413 35.546C59.3947 35.5184 59.3875 35.4849 59.3929 35.4523C59.3983 35.4196 59.4158 35.3902 59.442 35.37C59.8579 35.1242 60.3144 34.9548 60.79 34.87C61.1772 34.802 61.569 34.7629 61.962 34.753C62.6885 34.704 63.4078 34.9228 63.984 35.368C64.2369 35.6242 64.4306 35.9328 64.5515 36.2719C64.6725 36.611 64.7177 36.9725 64.684 37.331V41.377C64.684 41.377 64.684 41.494 64.596 41.524C64.4902 41.5589 64.3828 41.5882 64.274 41.612C64.127 41.641 63.6 41.759 63.16 41.817C62.716 41.9007 62.2648 41.9399 61.813 41.934C61.419 41.9431 61.0254 41.9038 60.641 41.817C60.3184 41.744 60.011 41.6151 59.733 41.436C59.4859 41.2514 59.2853 41.0117 59.147 40.736C58.9969 40.4248 58.9265 40.0812 58.942 39.736C58.9396 39.3805 59.0197 39.0293 59.176 38.71C59.3334 38.4204 59.5538 38.1699 59.821 37.977C60.099 37.7841 60.4053 37.6357 60.729 37.537C61.0829 37.4438 61.447 37.3951 61.813 37.392C62.165 37.421 62.399 37.421 62.575 37.421H62.579ZM60.821 40.527C61.2083 40.7614 61.6648 40.8547 62.113 40.791C62.516 40.7709 62.917 40.7217 63.313 40.644V38.623C62.9155 38.5658 62.5145 38.5364 62.113 38.535C61.6597 38.4984 61.2069 38.6116 60.824 38.857C60.6927 38.9539 60.5886 39.0831 60.5219 39.232C60.4551 39.3809 60.428 39.5445 60.443 39.707C60.4391 39.9119 60.4898 40.1142 60.59 40.293C60.619 40.352 60.649 40.41 60.824 40.527H60.821ZM98.183 35.165C98.154 35.282 97.919 35.898 97.861 36.103C97.8507 36.1404 97.8272 36.1729 97.7949 36.1944C97.7625 36.2159 97.7235 36.225 97.685 36.22C97.5205 36.1848 97.3531 36.165 97.185 36.161C96.9867 36.1657 96.7899 36.1952 96.599 36.249C96.3927 36.3158 96.2028 36.4255 96.042 36.571C95.8587 36.7474 95.727 36.9704 95.661 37.216C95.5552 37.5974 95.5053 37.9922 95.513 38.388V41.67C95.5143 41.6896 95.5114 41.7093 95.5045 41.7278C95.4976 41.7462 95.4868 41.763 95.4729 41.7769C95.459 41.7908 95.4422 41.8016 95.4238 41.8085C95.4053 41.8154 95.3856 41.8183 95.366 41.817H94.198C94.1783 41.8183 94.1586 41.8154 94.1402 41.8085C94.1218 41.8016 94.105 41.7908 94.0911 41.7769C94.0772 41.763 94.0664 41.7462 94.0595 41.7278C94.0525 41.7093 94.0497 41.6896 94.051 41.67V35.077C94.0473 35.042 94.0575 35.007 94.0794 34.9795C94.1013 34.9521 94.1331 34.9343 94.168 34.93H95.313C95.401 34.93 95.43 34.989 95.43 35.077V35.6C95.6265 35.3586 95.8778 35.1676 96.163 35.043C96.523 34.8888 96.9162 34.8282 97.306 34.867C97.553 34.8866 97.7981 34.9257 98.039 34.984C98.156 35.013 98.215 35.043 98.186 35.16L98.183 35.165ZM87.313 32.117C87.3287 32.1203 87.3436 32.1269 87.3566 32.1362C87.3697 32.1456 87.3807 32.1575 87.389 32.1713C87.3972 32.1851 87.4026 32.2005 87.4046 32.2164C87.4067 32.2323 87.4055 32.2485 87.401 32.264L87.049 33.202C87.02 33.261 86.99 33.319 86.844 33.261C86.815 33.261 86.756 33.232 86.61 33.202C86.4945 33.1765 86.3761 33.1668 86.258 33.173C86.1 33.1763 85.9428 33.1961 85.789 33.232C85.6413 33.2697 85.5084 33.3513 85.408 33.466C85.271 33.5998 85.1616 33.7591 85.086 33.935C84.9691 34.258 84.8906 34.5936 84.852 34.935H86.259C86.376 34.935 86.406 34.994 86.406 35.082L86.23 35.99C86.201 36.137 86.083 36.107 86.083 36.107H84.613L83.675 41.763C83.5832 42.2696 83.4559 42.7692 83.294 43.258C83.1705 43.6285 82.9709 43.9692 82.708 44.258C82.495 44.5204 82.2095 44.7141 81.887 44.815C81.5396 44.9399 81.1721 44.9995 80.803 44.991C80.5863 44.9992 80.3695 44.9794 80.158 44.932C80.0169 44.9106 79.8791 44.8712 79.748 44.815C79.7324 44.8074 79.7185 44.7969 79.7071 44.7839C79.6957 44.7709 79.687 44.7558 79.6815 44.7394C79.676 44.723 79.6739 44.7057 79.6751 44.6884C79.6764 44.6712 79.6811 44.6544 79.689 44.639C79.718 44.551 79.982 43.848 80.011 43.731C80.07 43.614 80.158 43.672 80.158 43.672C80.246 43.701 80.305 43.731 80.392 43.76C80.6853 43.8137 80.9874 43.7935 81.271 43.701C81.437 43.6375 81.5799 43.5252 81.681 43.379C81.8123 43.1875 81.9204 42.981 82.003 42.764C82.1114 42.4079 82.1995 42.046 82.267 41.68L83.267 36.142H82.3C82.183 36.142 82.153 36.083 82.153 35.995L82.329 35.087C82.358 34.94 82.476 34.97 82.476 34.97H83.476L83.535 34.677C83.6129 33.9344 83.9197 33.2345 84.413 32.674C84.6648 32.443 84.9601 32.2644 85.2817 32.1487C85.6033 32.033 85.9447 31.9824 86.286 32C86.4923 32.0023 86.698 32.022 86.901 32.059C87.0405 32.0368 87.1834 32.0574 87.311 32.118L87.313 32.117ZM67.561 41.641C67.5646 41.6759 67.5544 41.7109 67.5326 41.7384C67.5107 41.7659 67.4789 41.7837 67.444 41.788H66.271C66.183 41.788 66.154 41.729 66.154 41.641V32.234C66.154 32.175 66.213 32.087 66.271 32.087H67.443C67.531 32.087 67.56 32.146 67.56 32.234L67.561 41.641Z" fill="white"/>
</g>
</svg>
