<svg width="160" height="80" viewBox="0 0 160 80" fill="none" xmlns="http://www.w3.org/2000/svg">
<g id="SAP">
<path id="SAP [Frame Background]" d="M160 0H0V80H160V0Z" fill="white"/>
<path id="Vector" d="M33.846 17.161H126.154L80.494 62.821H33.846V17.156V17.161Z" fill="url(#paint0_linear_1_299)"/>
<path id="Vector_2" d="M94.218 58.153C95.028 58.153 95.439 58.446 95.439 59.117C95.4448 59.2398 95.4259 59.3625 95.3835 59.4778C95.3411 59.5932 95.2761 59.6989 95.1922 59.7888C95.1084 59.8786 95.0074 59.9507 94.8952 60.0009C94.783 60.0511 94.6619 60.0784 94.539 60.081L95.539 61.559H94.957L94.025 60.081H93.447V61.559H92.933V58.153H94.218ZM93.447 59.663H94.057C94.496 59.663 94.892 59.616 94.892 59.085C94.892 58.66 94.501 58.603 94.153 58.603H93.447V59.663ZM97.047 59.856C97.0523 60.2474 96.9797 60.6358 96.8333 60.9988C96.6869 61.3617 96.4697 61.6919 96.1943 61.9701C95.919 62.2482 95.591 62.4687 95.2296 62.6188C94.8681 62.7688 94.4804 62.8454 94.089 62.844C93.6987 62.844 93.3122 62.7672 92.9517 62.6178C92.5911 62.4684 92.2635 62.2495 91.9875 61.9735C91.7115 61.6976 91.4926 61.3699 91.3432 61.0094C91.1939 60.6488 91.117 60.2623 91.117 59.872C91.117 59.4817 91.1939 59.0953 91.3432 58.7347C91.4926 58.3741 91.7115 58.0465 91.9875 57.7705C92.2635 57.4945 92.5911 57.2756 92.9517 57.1263C93.3122 56.9769 93.6987 56.9 94.089 56.9C94.4782 56.8964 94.8642 56.9704 95.2245 57.1177C95.5847 57.265 95.912 57.4826 96.1872 57.7578C96.4625 58.033 96.6801 58.3603 96.8273 58.7206C96.9746 59.0808 97.0486 59.4668 97.045 59.856H97.047ZM91.647 59.856C91.6398 60.1802 91.6977 60.5025 91.8175 60.8039C91.9372 61.1052 92.1163 61.3794 92.3441 61.6102C92.5719 61.8409 92.8437 62.0236 93.1435 62.1472C93.4432 62.2709 93.7648 62.3331 94.089 62.33C94.4096 62.3301 94.7269 62.2655 95.0219 62.14C95.3169 62.0145 95.5835 61.8308 95.8057 61.5997C96.028 61.3687 96.2013 61.0952 96.3153 60.7955C96.4292 60.4959 96.4815 60.1764 96.469 59.856C96.4789 59.5364 96.4248 59.2179 96.3098 58.9195C96.1949 58.621 96.0215 58.3486 95.7997 58.1181C95.578 57.8876 95.3125 57.7037 95.0187 57.5773C94.7249 57.4509 94.4088 57.3845 94.089 57.382C93.7653 57.3809 93.4446 57.4444 93.1458 57.5687C92.8469 57.6931 92.5758 57.8758 92.3484 58.1062C92.121 58.3365 91.9418 58.61 91.8214 58.9104C91.701 59.2109 91.6417 59.5324 91.647 59.856Z" fill="#1870C5"/>
<path id="Vector_3" fill-rule="evenodd" clip-rule="evenodd" d="M89.157 39.006C91.828 39.006 93.957 38.122 93.957 35.301C93.957 32.569 91.831 31.689 89.157 31.689H87.157V39.006H89.157ZM67.626 44.237C68.5978 44.2379 69.5625 44.0718 70.478 43.746L67.656 34.633H67.594L64.712 43.721C65.6437 44.0656 66.6296 44.2404 67.623 44.237H67.626ZM88.626 25.753C97.312 25.753 101.391 28.847 101.391 35.591C101.391 41.651 97.191 45.262 90.091 45.262H87.159V53.991H73.696L72.364 49.817C69.2415 50.7983 65.8912 50.7843 62.777 49.777L61.39 53.991H53.136L54.045 51.548L53.712 51.839C51.4798 53.5748 48.7234 54.4995 45.896 54.461H45.422C41.8154 54.4503 38.2726 53.5093 35.136 51.729L37.942 46.153C40.1584 47.6502 42.7942 48.4022 45.467 48.3C45.992 48.3465 46.521 48.2889 47.0237 48.1303C47.5264 47.9717 47.9927 47.7154 48.396 47.376C48.7666 46.9972 48.9808 46.4927 48.996 45.963C49.02 44.514 46.959 43.835 44.435 43.056C42.2384 42.4476 40.1529 41.493 38.257 40.228C37.2297 39.5343 36.4013 38.5844 35.8539 37.4722C35.3065 36.36 35.059 35.1242 35.136 33.887C35.151 31.9061 35.9301 30.0074 37.311 28.587C39.311 26.522 42.536 25.261 46.4 25.261H46.421C49.9874 25.3168 53.4989 26.1491 56.711 27.7L53.555 33.2C51.5109 32.0871 49.2325 31.4737 46.906 31.41C44.191 31.261 42.814 32.234 42.793 33.281C42.769 34.561 45.371 35.717 47.814 36.503C51.521 37.678 56.238 39.254 56.954 43.803L63.736 25.744H71.603L79.54 47.344V25.744H88.626" fill="white"/>
</g>
<defs>
<linearGradient id="paint0_linear_1_299" x1="80" y1="17.2017" x2="80" y2="62.821" gradientUnits="userSpaceOnUse">
<stop stop-color="#00B8F1"/>
<stop offset="0.22" stop-color="#06A5E5"/>
<stop offset="0.794" stop-color="#1870C5"/>
<stop offset="1" stop-color="#1D61BC"/>
</linearGradient>
</defs>
</svg>
