<svg width="240" height="80" viewBox="0 0 240 80" fill="none" xmlns="http://www.w3.org/2000/svg">
<g id="Segment">
<path id="Segment [Frame Background]" d="M240 0H0V80H240V0Z" fill="white"/>
<g id="Twilio&#226;&#128;&#148;Segment&#226;&#128;&#148;Horizontal&#226;&#128;&#148;Green 1">
<path id="Vector" d="M34.141 32.5811H57.002C57.2115 32.5811 57.4125 32.6643 57.5606 32.8124C57.7088 32.9606 57.792 33.1615 57.792 33.3711V36.0321C57.792 36.2416 57.7088 36.4425 57.5606 36.5907C57.4125 36.7388 57.2115 36.8221 57.002 36.8221H34.141C33.9315 36.8221 33.7305 36.7388 33.5824 36.5907C33.4342 36.4425 33.351 36.2416 33.351 36.0321V33.3711C33.351 33.1615 33.4342 32.9606 33.5824 32.8124C33.7305 32.6643 33.9315 32.5811 34.141 32.5811Z" fill="#52BD94"/>
<path id="Vector_2" d="M19.019 43.178H41.88C42.0895 43.178 42.2905 43.2612 42.4386 43.4094C42.5868 43.5575 42.67 43.7585 42.67 43.968V46.629C42.67 46.8385 42.5868 47.0394 42.4386 47.1876C42.2905 47.3357 42.0895 47.419 41.88 47.419H19.019C18.8095 47.419 18.6085 47.3357 18.4604 47.1876C18.3122 47.0394 18.229 46.8385 18.229 46.629V43.968C18.229 43.7585 18.3122 43.5575 18.4604 43.4094C18.6085 43.2612 18.8095 43.178 19.019 43.178Z" fill="#52BD94"/>
<path id="Vector_3" fill-rule="evenodd" clip-rule="evenodd" d="M18.599 34.795C18.4977 34.7676 18.4029 34.7202 18.3201 34.6557C18.2373 34.5912 18.1682 34.5108 18.1168 34.4193C18.0654 34.3278 18.0328 34.2269 18.0208 34.1227C18.0088 34.0184 18.0177 33.9128 18.047 33.812C19.6049 28.7879 22.9985 24.5352 27.5516 21.9012C32.1047 19.2671 37.483 18.4452 42.615 19.599C42.7196 19.6215 42.8186 19.6649 42.906 19.7266C42.9933 19.7884 43.0673 19.8672 43.1234 19.9583C43.1794 20.0494 43.2165 20.1509 43.2322 20.2568C43.248 20.3626 43.2421 20.4705 43.215 20.574L42.525 23.15C42.4741 23.3442 42.3506 23.5115 42.18 23.6174C42.0094 23.7233 41.8046 23.7596 41.608 23.719C37.5469 22.8226 33.2974 23.4755 29.6927 25.5496C26.0879 27.6237 23.3879 30.9695 22.122 34.931C22.0658 35.1304 21.9338 35.2999 21.7541 35.4031C21.5745 35.5063 21.3616 35.535 21.161 35.483L18.599 34.795Z" fill="#52BD94"/>
<path id="Vector_4" fill-rule="evenodd" clip-rule="evenodd" d="M57.431 45.197C57.5324 45.2238 57.6274 45.2706 57.7104 45.3347C57.7934 45.3988 57.8627 45.4789 57.9142 45.5703C57.9656 45.6617 57.9982 45.7625 58.0101 45.8667C58.0219 45.9709 58.0127 46.0764 57.983 46.177C56.4235 51.2016 53.0289 55.4545 48.475 58.089C43.9205 60.7219 38.5416 61.5431 33.409 60.389C33.3042 60.3666 33.205 60.3231 33.1175 60.2612C33.0299 60.1994 32.9559 60.1203 32.8998 60.029C32.8437 59.9377 32.8067 59.8359 32.7911 59.7298C32.7755 59.6238 32.7816 59.5156 32.809 59.412L33.484 56.854C33.5343 56.6594 33.6576 56.4916 33.8284 56.3857C33.9992 56.2797 34.2043 56.2436 34.401 56.285C38.4654 57.1823 42.7184 56.5278 46.325 54.45C49.9312 52.373 52.6308 49.0232 53.894 45.058C53.9519 44.8573 54.086 44.6872 54.2676 44.5841C54.4492 44.4809 54.664 44.4529 54.866 44.506L57.431 45.197Z" fill="#52BD94"/>
<path id="Vector_5" d="M52.42 25.601C52.42 26.0608 52.2836 26.5104 52.0282 26.8927C51.7727 27.275 51.4096 27.573 50.9847 27.749C50.5599 27.925 50.0924 27.971 49.6414 27.8813C49.1904 27.7916 48.7761 27.5702 48.451 27.245C48.1258 26.9199 47.9044 26.5056 47.8147 26.0546C47.725 25.6036 47.771 25.1361 47.947 24.7113C48.123 24.2864 48.421 23.9233 48.8033 23.6678C49.1856 23.4124 49.6352 23.276 50.095 23.276C50.7116 23.276 51.303 23.521 51.739 23.957C52.1751 24.393 52.42 24.9844 52.42 25.601Z" fill="#52BD94"/>
<path id="Vector_6" d="M28.258 54.396C28.258 54.8559 28.1216 55.3054 27.8662 55.6877C27.6107 56.0701 27.2476 56.3681 26.8227 56.5441C26.3979 56.72 25.9304 56.7661 25.4794 56.6764C25.0284 56.5867 24.6141 56.3652 24.289 56.0401C23.9638 55.7149 23.7424 55.3006 23.6527 54.8496C23.563 54.3986 23.609 53.9311 23.785 53.5063C23.961 53.0815 24.259 52.7184 24.6413 52.4629C25.0236 52.2074 25.4732 52.071 25.933 52.071C26.5496 52.071 27.141 52.316 27.577 52.752C28.013 53.188 28.258 53.7794 28.258 54.396Z" fill="#52BD94"/>
<path id="Vector_7" fill-rule="evenodd" clip-rule="evenodd" d="M114.727 35.784C115.575 34.8541 116.611 34.1147 117.766 33.6148C118.921 33.1149 120.169 32.8658 121.427 32.884C122.459 32.8114 123.495 32.9722 124.457 33.3547C125.418 33.7371 126.281 34.3312 126.982 35.093V33.893C126.99 33.7266 127.059 33.569 127.176 33.4506C127.294 33.3322 127.451 33.2615 127.617 33.252H130.84C131.006 33.2619 131.163 33.3328 131.28 33.4511C131.397 33.5694 131.467 33.7267 131.475 33.893V51.79C131.576 54.3165 130.797 56.7996 129.27 58.815C127.531 60.93 124.891 62.001 121.423 62.001C116.602 62.001 112.798 58.95 112.171 54.593C112.156 54.4358 112.196 54.2783 112.285 54.1477C112.374 54.0171 112.505 53.9217 112.657 53.878L115.807 53.138C115.824 53.1367 115.84 53.1367 115.857 53.138C115.939 53.1256 116.023 53.1295 116.104 53.1496C116.184 53.1696 116.26 53.2055 116.327 53.255C116.394 53.3046 116.45 53.3668 116.493 53.4382C116.535 53.5096 116.563 53.5887 116.575 53.671C116.716 54.8499 117.291 55.9338 118.189 56.7107C119.087 57.4875 120.242 57.9013 121.429 57.871C125.195 57.871 126.951 55.938 126.951 51.899V50.329C126.26 51.1033 125.407 51.7163 124.453 52.1246C123.499 52.533 122.466 52.7267 121.429 52.692C116.07 52.692 112.182 48.531 112.182 42.805C112.135 40.2306 113.04 37.7297 114.727 35.784ZM177.262 32.634H177.43C183.192 32.711 186.762 36.723 186.762 43.143C186.762 43.4834 186.743 43.8235 186.707 44.162C186.689 44.3134 186.616 44.453 186.502 44.5547C186.388 44.6563 186.242 44.7129 186.089 44.714H172.389C172.43 46.0969 173.013 47.408 174.013 48.3644C175.013 49.3207 176.349 49.8453 177.732 49.825C178.815 49.8927 179.889 49.5914 180.779 48.9701C181.669 48.3488 182.322 47.4442 182.632 46.404C182.689 46.2519 182.803 46.1277 182.95 46.0573C183.096 45.9869 183.264 45.9757 183.419 46.026L186.144 46.992C186.223 47.0177 186.295 47.0598 186.357 47.1155C186.418 47.1711 186.467 47.2391 186.5 47.315C186.537 47.3884 186.559 47.4685 186.565 47.5507C186.571 47.6328 186.56 47.7152 186.533 47.793C185.915 49.6243 184.725 51.2086 183.138 52.3122C181.551 53.4159 179.652 53.9806 177.72 53.923C176.432 53.9356 175.155 53.6926 173.962 53.2082C172.769 52.7238 171.684 52.0076 170.77 51.101C169.773 50.0514 168.996 48.8131 168.484 47.4589C167.972 46.1046 167.736 44.6618 167.789 43.215C167.789 36.588 172.604 32.621 177.257 32.621L177.262 32.634ZM99.762 32.634C105.626 32.634 109.271 36.662 109.271 43.145C109.271 43.4854 109.252 43.8256 109.216 44.164C109.2 44.3162 109.127 44.457 109.013 44.5589C108.899 44.6609 108.751 44.7169 108.598 44.716H94.898C94.9363 46.1066 95.523 47.4256 96.5302 48.3852C97.5373 49.3448 98.8832 49.8671 100.274 49.838C101.357 49.9057 102.431 49.6044 103.321 48.9831C104.211 48.3618 104.864 47.4572 105.174 46.417C105.23 46.2636 105.343 46.1381 105.49 46.0675C105.638 45.9968 105.806 45.9866 105.961 46.039L108.697 47.003C108.776 47.0285 108.848 47.0704 108.91 47.1261C108.971 47.1818 109.02 47.25 109.053 47.326C109.084 47.4018 109.101 47.483 109.101 47.565C109.101 47.647 109.084 47.7282 109.053 47.804C108.435 49.6345 107.246 51.2181 105.66 52.3217C104.074 53.4253 102.176 53.9905 100.245 53.934C98.9566 53.9474 97.6783 53.7052 96.4841 53.2213C95.29 52.7374 94.2036 52.0215 93.288 51.115C92.2919 50.0645 91.515 48.8261 91.0025 47.4722C90.49 46.1182 90.2522 44.6758 90.303 43.229C90.303 36.602 95.118 32.635 99.773 32.635L99.762 32.634ZM79.016 32.634C81.2839 32.5207 83.5216 33.1916 85.353 34.534C86.4179 35.383 87.2077 36.528 87.623 37.825C87.636 37.8801 87.638 37.9373 87.6287 37.9931C87.6195 38.049 87.5993 38.1025 87.5692 38.1505C87.5392 38.1984 87.4999 38.24 87.4537 38.2727C87.4075 38.3054 87.3552 38.3286 87.3 38.341L84.04 39.42C83.8951 39.4752 83.7349 39.4752 83.59 39.42C83.5281 39.3914 83.4732 39.3498 83.4288 39.298C83.3845 39.2462 83.3518 39.1855 83.333 39.12C83.057 38.063 82.107 36.287 79.017 36.287C76.861 36.287 75.568 37.524 75.568 38.722C75.568 39.522 75.979 40.542 77.923 40.912L81.512 41.586C85.524 42.395 87.821 44.586 87.821 47.646V47.594C87.821 50.631 84.9 53.875 79.472 53.875C73.174 53.877 70.7 50.315 70.24 48.215C70.2249 48.1052 70.2505 47.9937 70.3121 47.9016C70.3736 47.8095 70.4668 47.7431 70.574 47.715L73.947 46.665C74.0072 46.654 74.0688 46.654 74.129 46.665C74.2251 46.6632 74.3201 46.6859 74.405 46.731C74.4656 46.7601 74.5192 46.802 74.562 46.8538C74.6048 46.9056 74.6359 46.966 74.653 47.031C75.078 49.052 76.903 50.256 79.529 50.256C81.973 50.256 83.085 48.978 83.085 47.818C83.085 46.658 82.094 45.805 80.39 45.463L76.613 44.729C73.09 44.064 70.895 41.874 70.895 39.029C70.895 35.561 74.62 32.634 79.018 32.634H79.016ZM217.775 27.015C217.946 27.0257 218.107 27.1014 218.225 27.2267C218.342 27.3519 218.407 27.5173 218.407 27.689V33.215H221.949C222.119 33.2274 222.279 33.3038 222.395 33.4288C222.511 33.5538 222.576 33.7182 222.576 33.889V36.828C222.577 36.9956 222.511 37.1567 222.394 37.2762C222.276 37.3957 222.117 37.4639 221.949 37.466H218.407V47.293C218.407 48.922 219.053 49.593 220.715 49.593C221.094 49.5866 221.472 49.5552 221.847 49.499C221.938 49.4835 222.031 49.4881 222.12 49.5125C222.208 49.5368 222.291 49.5804 222.361 49.64C222.428 49.7022 222.481 49.7774 222.518 49.8609C222.555 49.9445 222.575 50.0347 222.576 50.126V52.887C222.577 53.0245 222.533 53.1585 222.452 53.269C222.37 53.3796 222.255 53.4606 222.123 53.5C221.314 53.7267 220.478 53.8354 219.638 53.823C216.087 53.823 213.887 51.54 213.887 47.856V37.507H210.822C210.656 37.4968 210.5 37.4258 210.383 37.3075C210.267 37.1892 210.198 37.032 210.19 36.866V33.915C210.189 33.7431 210.254 33.5773 210.372 33.4519C210.489 33.3265 210.65 33.251 210.822 33.241H211.622C211.975 33.2776 212.331 33.2342 212.665 33.114C212.999 32.9939 213.301 32.8 213.55 32.547C213.798 32.2939 213.987 31.9881 214.101 31.6522C214.215 31.3164 214.252 30.9591 214.209 30.607V27.689C214.208 27.5173 214.273 27.3516 214.39 27.2262C214.508 27.1008 214.669 27.0253 214.84 27.015H217.775ZM151.289 35.925C151.981 34.8667 152.937 34.0068 154.063 33.4298C155.188 32.8528 156.444 32.5785 157.708 32.634C161.208 32.634 164.746 35.1 164.746 40.486V52.955C164.738 53.1213 164.668 53.2787 164.551 53.397C164.434 53.5152 164.277 53.5861 164.111 53.596H160.884C160.718 53.5854 160.562 53.5142 160.446 53.396C160.329 53.2778 160.26 53.1208 160.252 52.955V40.886C160.252 39.359 159.774 36.786 156.541 36.786C154.178 36.786 152.499 38.644 152.499 41.339V52.955C152.491 53.121 152.422 53.2782 152.306 53.3965C152.189 53.5148 152.033 53.5858 151.867 53.596H148.597C148.431 53.5861 148.274 53.5152 148.157 53.397C148.04 53.2787 147.97 53.1213 147.962 52.955V40.886C147.968 39.359 147.493 36.775 144.257 36.775C141.8 36.775 140.143 38.619 140.143 41.367V52.955C140.135 53.1208 140.066 53.2778 139.949 53.396C139.833 53.5142 139.677 53.5854 139.511 53.596H136.286C136.121 53.5847 135.966 53.5131 135.85 53.3949C135.735 53.2767 135.667 53.1202 135.659 52.955V33.843C135.667 33.678 135.735 33.5217 135.851 33.4036C135.966 33.2855 136.121 33.2138 136.286 33.202H139.386C139.552 33.2126 139.708 33.2838 139.824 33.402C139.941 33.5202 140.01 33.6772 140.018 33.843V34.994C140.709 34.2377 141.553 33.6363 142.493 33.2294C143.434 32.8224 144.449 32.6192 145.474 32.633C146.652 32.5981 147.816 32.8865 148.841 33.4668C149.866 34.0472 150.713 34.8974 151.289 35.925ZM200.466 32.634C201.499 32.5897 202.529 32.781 203.477 33.1935C204.426 33.606 205.268 34.2289 205.94 35.015C207.192 36.6656 207.829 38.7019 207.74 40.772V52.955C207.733 53.1199 207.666 53.2764 207.55 53.3947C207.435 53.5129 207.281 53.5846 207.116 53.596H203.85C203.684 53.5855 203.528 53.5144 203.411 53.3962C203.294 53.2781 203.224 53.1211 203.215 52.955V41.415C203.215 38.397 201.796 36.862 199.101 36.862C198.514 36.843 197.932 36.9623 197.4 37.2102C196.868 37.4581 196.402 37.8277 196.039 38.289C195.308 39.3396 194.939 40.5993 194.987 41.878V52.955C194.979 53.1208 194.91 53.2778 194.793 53.396C194.677 53.5142 194.521 53.5854 194.355 53.596H191.094C190.928 53.5854 190.772 53.5142 190.656 53.396C190.539 53.2778 190.47 53.1208 190.462 52.955V33.829C190.469 33.6625 190.537 33.5044 190.654 33.3856C190.771 33.2667 190.928 33.1956 191.094 33.186H194.28C194.445 33.1967 194.6 33.2676 194.715 33.3853C194.831 33.503 194.899 33.6592 194.907 33.824V35.171C195.582 34.356 196.434 33.7044 197.397 33.2651C198.36 32.8257 199.41 32.61 200.468 32.634H200.466ZM121.989 36.908C118.808 36.908 116.789 39.169 116.789 42.808C116.789 46.447 118.782 48.703 121.989 48.703C125.045 48.703 127.105 46.331 127.105 42.808C127.105 39.285 125.045 36.908 121.989 36.908ZM99.798 36.726C98.6248 36.7058 97.4863 37.124 96.6051 37.8987C95.7238 38.6734 95.1633 39.7489 95.033 40.915H104.614C104.582 40.3205 104.431 39.7384 104.17 39.2033C103.909 38.6683 103.542 38.1912 103.093 37.8005C102.644 37.4097 102.121 37.1132 101.555 36.9287C100.989 36.7441 100.391 36.6752 99.798 36.726ZM177.314 36.726C176.142 36.7078 175.004 37.127 174.124 37.9019C173.244 38.6768 172.684 39.7517 172.554 40.917H182.14C182.108 40.3217 181.956 39.739 181.694 39.2035C181.432 38.668 181.065 38.1906 180.614 37.7996C180.164 37.4087 179.64 37.1122 179.073 36.9278C178.506 36.7434 177.908 36.6748 177.314 36.726Z" fill="#52BD94"/>
<path id="Vector_8" d="M75.648 19.709V26.131H73.828V19.709H71.313V18.152H78.191V19.709H75.648Z" fill="#52BD94"/>
<path id="Vector_9" d="M89.547 26.159H87.658L85.922 20.278L84.158 26.159H82.305L79.958 18.152H81.891L83.379 23.92L85.058 18.152H86.99L88.647 23.92L90.088 18.152H91.866L89.547 26.159Z" fill="#52BD94"/>
<path id="Vector_10" d="M94.37 26.131V18.152H96.162V26.131H94.37Z" fill="#52BD94"/>
<path id="Vector_11" d="M99.387 26.131V18.152H101.207V24.56H104.321V26.131H99.387Z" fill="#52BD94"/>
<path id="Vector_12" d="M107.033 26.131V18.152H108.839V26.131H107.033Z" fill="#52BD94"/>
<path id="Vector_13" d="M115.595 26.283C115.056 26.2961 114.521 26.1971 114.023 25.9923C113.524 25.7875 113.074 25.4814 112.7 25.0934C112.326 24.7054 112.037 24.2439 111.851 23.7382C111.665 23.2326 111.586 22.6938 111.619 22.156C111.588 21.6168 111.669 21.077 111.856 20.5705C112.044 20.064 112.334 19.6017 112.708 19.2127C113.083 18.8237 113.534 18.5165 114.033 18.3102C114.533 18.1039 115.069 18.0031 115.609 18.014C116.148 18.0029 116.684 18.1037 117.182 18.3102C117.681 18.5166 118.131 18.8242 118.504 19.2135C118.877 19.6028 119.166 20.0652 119.352 20.5717C119.537 21.0782 119.616 21.6177 119.582 22.156C119.615 22.6947 119.536 23.2344 119.349 23.7407C119.162 24.2471 118.872 24.709 118.497 25.0972C118.122 25.4854 117.67 25.7912 117.171 25.9954C116.671 26.1995 116.135 26.2975 115.595 26.283ZM115.595 19.474C114.219 19.475 113.411 20.614 113.411 22.142C113.411 23.67 114.239 24.823 115.595 24.823C116.951 24.823 117.749 23.658 117.749 22.156C117.749 20.654 116.942 19.475 115.609 19.475L115.595 19.474Z" fill="#52BD94"/>
</g>
</g>
</svg>
