<svg width="240" height="80" viewBox="0 0 240 80" fill="none" xmlns="http://www.w3.org/2000/svg">
<g id="ServiceNow">
<path id="ServiceNow [Frame Background]" d="M240 0H0V80H240V0Z" fill="white"/>
<g id="Layer 2">
<g id="Layer 1">
<path id="Vector" fill-rule="evenodd" clip-rule="evenodd" d="M66.422 34.004V39.514C65.6875 39.2408 64.9045 39.122 64.122 39.165C63.1119 39.1953 62.1212 39.4498 61.2215 39.9101C60.3219 40.3703 59.5357 41.0247 58.92 41.826V55.537H53.191V34.076H58.702V36.025C59.7672 35.1517 61.0085 34.5191 62.341 34.1702C63.6735 33.8214 65.0656 33.7647 66.422 34.004Z" fill="#293E40"/>
<path id="Vector_2" fill-rule="evenodd" clip-rule="evenodd" d="M14.777 48.9939C16.4042 50.366 18.4645 51.118 20.593 51.1169C22.134 51.1169 23.326 50.3609 23.326 49.2999C23.37 46.0719 13.017 47.2639 13.017 40.3139C13.018 36.1989 16.987 33.6399 21.218 33.6399C23.8008 33.6368 26.328 34.3898 28.488 35.8059L25.755 39.9939C24.5685 39.1019 23.1374 38.5945 21.654 38.5399C20.069 38.5399 18.746 39.1649 18.746 40.2699C18.746 43.0619 29.098 41.9569 29.098 49.3859C29.098 53.4569 25.085 55.9859 20.592 55.9859C17.4948 55.9383 14.4903 54.9221 12 53.0799L14.777 48.9939Z" fill="#293E40"/>
<path id="Vector_3" fill-rule="evenodd" clip-rule="evenodd" d="M50.603 46.2459H35.7C35.8328 47.6778 36.5103 49.004 37.5925 49.951C38.6747 50.8979 40.0792 51.3933 41.516 51.3349C42.5338 51.3034 43.5348 51.067 44.4592 50.6399C45.3836 50.2127 46.2124 49.6036 46.896 48.8489L50.167 52.1489C49.0664 53.3686 47.7199 54.3413 46.2163 55.003C44.7126 55.6647 43.0858 56.0003 41.443 55.9879C39.9566 56.0582 38.4718 55.8177 37.0836 55.2818C35.6954 54.7459 34.4343 53.9263 33.3807 52.8754C32.3272 51.8245 31.5044 50.5653 30.965 49.1785C30.4256 47.7916 30.1814 46.3075 30.248 44.8209C30.248 38.8599 34.304 33.6399 40.644 33.6399C46.562 33.6399 50.749 38.6269 50.749 44.6029C50.7479 45.1537 50.6994 45.7034 50.604 46.2459H50.603ZM44.875 42.0399C44.7539 41.0027 44.2561 40.0461 43.4761 39.3518C42.6961 38.6576 41.6882 38.274 40.644 38.2739C39.5618 38.271 38.5124 38.6455 37.6764 39.3329C36.8405 40.0202 36.2703 40.9775 36.064 42.0399H44.875Z" fill="#293E40"/>
<path id="Vector_4" fill-rule="evenodd" clip-rule="evenodd" d="M80.075 47.1769L85.935 34.0769H91.896L82.053 55.5379H78.098L68.269 34.0769H74.216L80.075 47.1769Z" fill="#293E40"/>
<path id="Vector_5" fill-rule="evenodd" clip-rule="evenodd" d="M96.695 23.9999C97.6076 24.0139 98.4823 24.3666 99.1494 24.9895C99.8165 25.6123 100.228 26.4609 100.305 27.3703C100.381 28.2798 100.117 29.1852 99.5631 29.9107C99.0093 30.6361 98.2057 31.1299 97.3083 31.296C96.4109 31.4622 95.4838 31.2888 94.707 30.8097C93.9303 30.3305 93.3594 29.5797 93.1052 28.7032C92.851 27.8267 92.9317 26.8869 93.3315 26.0666C93.7314 25.2462 94.422 24.6037 95.269 24.2639C95.7221 24.0822 96.2069 23.9924 96.695 23.9999Z" fill="#293E40"/>
<path id="Vector_6" d="M93.83 34.0769H99.559V55.5379H93.83V34.0769Z" fill="#293E40"/>
<path id="Vector_7" fill-rule="evenodd" clip-rule="evenodd" d="M123.259 51.161C122.174 52.7119 120.718 53.9663 119.024 54.8095C117.329 55.6527 115.45 56.0579 113.559 55.988C110.616 55.9599 107.803 54.7709 105.731 52.6796C103.66 50.5883 102.498 47.7639 102.499 44.8205C102.499 41.8771 103.661 39.0529 105.733 36.962C107.804 34.871 110.618 33.6826 113.561 33.655C115.294 33.649 117.006 34.0389 118.566 34.7948C120.125 35.5507 121.492 36.6528 122.561 38.017L118.548 41.448C117.98 40.6661 117.237 40.0276 116.379 39.5833C115.521 39.1391 114.57 38.9013 113.604 38.889C112.834 38.8889 112.072 39.0417 111.361 39.3386C110.651 39.6354 110.006 40.0703 109.465 40.6182C108.924 41.166 108.498 41.8158 108.21 42.5299C107.922 43.2439 107.778 44.0081 107.788 44.778C107.765 45.5551 107.903 46.3285 108.193 47.05C108.482 47.7715 108.917 48.4255 109.471 48.9713C110.025 49.5171 110.685 49.9429 111.41 50.222C112.136 50.5012 112.911 50.6278 113.688 50.594C114.708 50.5747 115.709 50.3059 116.601 49.811C117.494 49.3162 118.252 48.6103 118.809 47.755L123.259 51.161Z" fill="#293E40"/>
<path id="Vector_8" fill-rule="evenodd" clip-rule="evenodd" d="M144.065 52.1349C142.964 53.3546 141.618 54.3273 140.114 54.989C138.611 55.6507 136.984 55.9863 135.341 55.9739C133.856 56.0418 132.374 55.8001 130.988 55.2642C129.601 54.7283 128.342 53.9099 127.289 52.861C126.236 51.8121 125.413 50.5557 124.871 49.1715C124.33 47.7874 124.083 46.3058 124.145 44.8209C124.145 38.8599 128.202 33.6399 134.556 33.6399C140.456 33.6399 144.647 38.6269 144.647 44.6029C144.65 45.1533 144.606 45.703 144.516 46.2459H129.656C129.789 47.6778 130.466 49.004 131.548 49.951C132.631 50.8979 134.035 51.3933 135.472 51.3349C136.49 51.3034 137.491 51.067 138.415 50.6399C139.34 50.2127 140.168 49.6036 140.852 48.8489L144.065 52.1349ZM138.743 42.0399C138.601 41.0113 138.097 40.067 137.322 39.3767C136.546 38.6864 135.55 38.2954 134.512 38.2739C133.427 38.2678 132.375 38.6407 131.536 39.3284C130.697 40.016 130.125 40.9751 129.918 42.0399H138.743Z" fill="#293E40"/>
<path id="Vector_9" fill-rule="evenodd" clip-rule="evenodd" d="M146.871 55.54V34.076H152.382V35.806C154.081 34.3956 156.222 33.6287 158.43 33.64C159.841 33.6361 161.235 33.9428 162.514 34.5383C163.793 35.1339 164.925 36.0037 165.83 37.086C167.284 38.773 168.04 40.939 168.04 44.603V55.54H162.298V44.167C162.377 43.4448 162.306 42.7139 162.088 42.0208C161.87 41.3276 161.511 40.6871 161.033 40.14C160.157 39.3314 158.996 38.9028 157.805 38.948C156.798 38.9768 155.81 39.229 154.912 39.6864C154.014 40.1439 153.229 40.7951 152.614 41.593V55.54H146.871Z" fill="#293E40"/>
<path id="Vector_10" fill-rule="evenodd" clip-rule="evenodd" d="M182.785 33.6399C185.285 33.6632 187.721 34.4326 189.78 35.8495C191.84 37.2664 193.429 39.2661 194.344 41.5923C195.26 43.9185 195.46 46.4651 194.918 48.9056C194.377 51.3461 193.118 53.5692 191.305 55.2899C190.876 55.7022 190.313 55.9478 189.719 55.9825C189.125 56.0171 188.537 55.8386 188.063 55.4789C186.519 54.3283 184.645 53.7067 182.719 53.7067C180.794 53.7067 178.92 54.3283 177.376 55.4789C176.906 55.8395 176.322 56.0201 175.73 55.9882C175.138 55.9563 174.577 55.714 174.148 55.3049C172.322 53.5783 171.057 51.3433 170.516 48.8893C169.975 46.4353 170.183 43.8754 171.114 41.5411C172.044 39.2069 173.654 37.2058 175.735 35.7971C177.816 34.3883 180.272 33.6368 182.785 33.6399ZM185.202 52.0139C186.36 51.5547 187.348 50.751 188.034 49.7115C188.72 48.672 189.07 47.4469 189.037 46.2019C189.077 45.3569 188.945 44.5126 188.649 43.7201C188.354 42.9275 187.9 42.2033 187.316 41.5911C186.732 40.979 186.03 40.4917 185.253 40.1587C184.475 39.8258 183.638 39.6541 182.792 39.6541C181.946 39.6541 181.109 39.8258 180.331 40.1587C179.554 40.4917 178.852 40.979 178.268 41.5911C177.684 42.2033 177.23 42.9275 176.935 43.7201C176.639 44.5126 176.507 45.3569 176.547 46.2019C176.525 47.0271 176.671 47.8481 176.977 48.6149C177.283 49.3817 177.741 50.0782 178.325 50.6619C178.909 51.2456 179.605 51.7042 180.372 52.0099C181.139 52.3156 181.96 52.4619 182.785 52.4399C183.611 52.4638 184.434 52.3188 185.202 52.0139Z" fill="#81B5A1"/>
<path id="Vector_11" fill-rule="evenodd" clip-rule="evenodd" d="M206.558 55.5379H202.283L193.777 34.0769H199.491L204.158 46.3489L208.738 34.0769H213.522L218.058 46.3489L222.755 34.0769H228.484L219.964 55.5379H215.704L211.123 43.3239L206.558 55.5379Z" fill="#293E40"/>
<path id="Vector_12" d="M225.342 52.818V53.283H224.615V55.537H224.092V53.283H223.365V52.818H225.342Z" fill="#293E40"/>
<path id="Vector_13" d="M227.117 54.446L228.105 52.818H228.483V55.537H227.96V54.01L227.306 55.086H226.928L226.288 54.01V55.537H225.75V52.818H226.128L227.117 54.446Z" fill="#293E40"/>
</g>
</g>
</g>
</svg>
