<svg width="160" height="80" viewBox="0 0 160 80" fill="none" xmlns="http://www.w3.org/2000/svg">
<g id="shopify">
<path id="shopify [Frame Background]" d="M160 0H0V80H160V0Z" fill="white"/>
<g id="Group">
<g id="Group_2">
<path id="Vector" d="M51.572 53.1461L43.235 55.2131L24 51.8881C24 51.8881 26.292 34.1581 26.337 33.5291C26.449 32.6981 26.472 32.6751 27.348 32.4051C27.393 32.4051 28.606 32.0231 30.337 31.4841C30.6256 29.9233 31.205 28.4308 32.045 27.0841C33.281 25.1471 34.786 24.0461 36.292 24.0001C36.6554 23.9809 37.0187 24.0413 37.3564 24.177C37.694 24.3128 37.998 24.5206 38.247 24.7861C38.292 24.8081 38.314 24.8531 38.359 24.8981C38.44 24.8796 38.5231 24.8722 38.606 24.8761C39.2103 24.8953 39.7964 25.0878 40.2944 25.4307C40.7925 25.7735 41.1814 26.2524 41.415 26.8101C41.5969 27.1627 41.7472 27.5308 41.864 27.9101C42.448 27.7301 42.808 27.6181 42.808 27.6181C42.9195 27.5787 43.0387 27.5664 43.1558 27.582C43.273 27.5977 43.3848 27.6409 43.482 27.7081C43.662 27.9081 45.527 29.7081 45.527 29.7081C45.527 29.7081 47.752 29.7531 47.864 29.7531C47.9309 29.7558 47.9947 29.7821 48.0441 29.8273C48.0935 29.8725 48.1253 29.9337 48.134 30.0001C48.156 30.1571 51.55 53.1461 51.572 53.1461ZM38.966 25.9561C39.2686 26.839 39.4204 27.7667 39.415 28.7001C39.9543 28.5201 40.4487 28.3627 40.898 28.2281C40.673 27.4421 40.112 26.1381 38.966 25.9581V25.9561ZM37.887 26.0461C37.4771 26.231 37.1098 26.4986 36.808 26.8321C36.0333 27.742 35.4796 28.8187 35.19 29.9781C36.29 29.6411 37.39 29.3041 38.403 28.9891C38.4582 27.9815 38.2817 26.9747 37.887 26.0461ZM31.438 31.1701C32.247 30.9231 33.146 30.6531 34.067 30.3611C34.3463 28.8134 35.0372 27.3696 36.067 26.1811C36.395 25.8034 36.7913 25.491 37.235 25.2601C36.9701 25.0815 36.6539 24.9948 36.335 25.0131C34.02 25.0801 31.976 28.7211 31.435 31.1701H31.438Z" fill="#95BF47"/>
<g id="Group_3">
<path id="Vector_2" d="M48.156 29.997C48.178 30.154 51.572 53.142 51.572 53.142L43.235 55.214V27.597C43.3287 27.6009 43.4173 27.641 43.482 27.709C43.662 27.909 45.527 29.709 45.527 29.709C45.527 29.709 47.752 29.754 47.864 29.754C47.9324 29.7594 47.9975 29.7861 48.0499 29.8304C48.1023 29.8747 48.1394 29.9344 48.156 30.001V29.997Z" fill="#5E8E3E"/>
<path id="Vector_3" d="M38.606 34.0451L37.64 37.6631C36.8936 37.3545 36.0874 37.2178 35.281 37.2631C33.393 37.3751 33.393 38.5631 33.393 38.8631C33.505 40.4721 37.752 40.8321 37.999 44.6291C38.179 47.6181 36.426 49.6621 33.864 49.8201C33.0036 49.886 32.1387 49.7745 31.3232 49.4924C30.5077 49.2102 29.7588 48.7636 29.123 48.1801L29.775 45.4121C30.6603 46.0904 31.7201 46.5035 32.831 46.6031C32.9933 46.6003 33.1533 46.5644 33.3012 46.4975C33.4491 46.4307 33.5818 46.3343 33.6912 46.2144C33.8005 46.0945 33.8842 45.9535 33.9372 45.8C33.9901 45.6466 34.0111 45.484 33.999 45.3221C33.864 43.2101 30.399 43.3451 30.179 39.8621C29.999 36.9441 31.909 34.0001 36.134 33.7311C36.9713 33.6281 37.821 33.736 38.606 34.0451Z" fill="white"/>
</g>
</g>
<g id="Group_4">
<path id="s_4_" d="M65.594 45.413C65.594 48.447 63.122 50.132 59.707 50.132C58.3931 50.1704 57.0943 49.8448 55.954 49.191L56.898 46.491C57.8662 46.9917 58.932 47.2753 60.021 47.322C61.1 47.322 61.684 46.738 61.684 46.022C61.684 45.322 61.284 44.854 60.111 44.202C58.673 43.371 57.594 42.225 57.594 40.697C57.594 38.023 59.909 36.113 63.235 36.113C65.617 36.113 66.426 36.742 66.426 36.742L65.554 39.439C64.8002 39.1163 63.9917 38.9408 63.172 38.922C62.093 38.922 61.397 39.416 61.397 40.18C61.397 40.787 61.891 41.236 62.858 41.753C64.336 42.607 65.572 43.776 65.594 45.413Z" fill="black"/>
<path id="h_4_" d="M79.571 39.5281C79.5506 40.3655 79.4603 41.1997 79.301 42.0221L77.818 49.8881H74.018L75.458 42.2701C75.5658 41.715 75.6184 41.1506 75.615 40.5851C75.615 39.7541 75.278 39.1691 74.424 39.1691C73.211 39.1691 71.907 40.7191 71.413 43.2361L70.158 49.8881H66.358L70.066 30.4281H73.866L72.403 38.0681L72.448 38.0901C72.9206 37.4695 73.5284 36.9648 74.2254 36.6145C74.9223 36.2641 75.69 36.0772 76.47 36.0681C78.47 36.0681 79.593 37.3681 79.57 39.5291L79.571 39.5281Z" fill="black"/>
<path id="o_4_" d="M93.346 41.3941C93.346 46.1131 90.312 50.1351 85.818 50.1351C85.1124 50.1744 84.4065 50.0627 83.7474 49.8077C83.0883 49.5527 82.4911 49.1601 81.9956 48.6561C81.5002 48.1522 81.1178 47.5484 80.8741 46.885C80.6303 46.2217 80.5307 45.514 80.582 44.8091C80.582 40.2031 83.616 36.0681 88.2 36.0681C91.773 36.0681 93.368 38.6751 93.346 41.3941ZM89.482 41.3041C89.482 40.1801 89.033 39.0121 87.682 39.0121C85.615 39.0121 84.491 42.5621 84.491 44.7421C84.491 46.1351 85.03 47.2361 86.334 47.2361C88.334 47.2361 89.482 43.6411 89.482 41.3041Z" fill="black"/>
<path id="p_4_" d="M107.03 40.9221C107.03 45.5511 104.109 50.1351 99.637 50.1351C98.865 50.1662 98.0983 49.996 97.412 49.6411H97.322L96.269 55.2811H92.469L95.121 41.3491C95.413 39.7761 95.728 37.6641 95.885 36.2931H99.255L99.031 38.3381H99.076C99.5268 37.676 100.124 37.1268 100.822 36.7331C101.519 36.3394 102.298 36.1119 103.098 36.0681C105.884 36.0681 107.03 38.3601 107.03 40.9221ZM103.053 41.3041C103.053 40.2931 102.693 39.2141 101.525 39.2141C100.199 39.2141 98.963 40.7871 98.514 43.1681L97.885 46.7181C98.3251 47.0878 98.8833 47.2872 99.458 47.2801C101.593 47.2801 103.058 43.7751 103.058 41.3031L103.053 41.3041Z" fill="black"/>
<path id="dot_4_" d="M114.356 32.518C114.364 32.8113 114.312 33.1032 114.203 33.3755C114.094 33.6479 113.93 33.8949 113.721 34.1012C113.513 34.3075 113.264 34.4687 112.99 34.5748C112.717 34.6809 112.424 34.7297 112.131 34.718H112.089C111.842 34.7238 111.596 34.6774 111.367 34.582C111.139 34.4865 110.933 34.3441 110.763 34.164C110.594 33.9839 110.464 33.7701 110.382 33.5365C110.3 33.3029 110.269 33.0547 110.289 32.808C110.285 32.5198 110.339 32.2338 110.447 31.9665C110.555 31.6993 110.715 31.4563 110.918 31.2515C111.121 31.0468 111.363 30.8844 111.629 30.774C111.895 30.6635 112.181 30.6071 112.469 30.608C112.722 30.597 112.974 30.6391 113.209 30.7315C113.445 30.8239 113.658 30.9646 113.836 31.1445C114.014 31.3245 114.152 31.5397 114.241 31.7762C114.331 32.0128 114.37 32.2655 114.356 32.518Z" fill="black"/>
<path id="i_4_" d="M109.705 36.3831H113.525L110.943 49.8661H107.143L109.705 36.3831Z" fill="black"/>
<path id="f_4_" d="M122.67 39.2361H120.041L118.021 49.8881H114.221L116.243 39.2361H114.468L115.03 36.3581H116.805L116.921 35.7311C117.126 34.0793 117.905 32.5521 119.121 31.4161C120.176 30.5692 121.497 30.1235 122.85 30.1581C123.557 30.119 124.263 30.234 124.921 30.4951L124.176 33.4841C123.785 33.3526 123.375 33.285 122.963 33.2841C121.682 33.2841 120.918 34.4301 120.693 35.7331L120.558 36.3581H123.209L122.67 39.2361Z" fill="black"/>
<path id="y_4_" d="M136.355 36.3831L131.704 46.3831C130.505 49.1776 128.816 51.7347 126.715 53.9331C125.661 54.919 124.38 55.6291 122.985 56.0001L121.929 52.7641C122.694 52.5048 123.42 52.141 124.086 51.6831C124.945 51.0912 125.653 50.3062 126.153 49.3911C126.209 49.2973 126.245 49.1935 126.261 49.0855C126.276 48.9776 126.27 48.8677 126.243 48.7621L123.951 36.3831H127.951C127.951 36.3831 128.827 44.6071 128.895 45.6641H128.94C129.996 42.3831 132.378 36.3831 132.378 36.3831H136.355Z" fill="black"/>
</g>
</g>
</g>
</svg>
