<svg width="119" height="85" viewBox="0 0 119 85" fill="none" xmlns="http://www.w3.org/2000/svg">
<path id="Vector" fill-rule="evenodd" clip-rule="evenodd" d="M53.1502 68.7123C71.3629 84.4785 95.0888 91.9357 118.146 75.1229C118.402 74.9356 118.574 74.6541 118.624 74.3402C118.673 74.0263 118.596 73.7056 118.409 73.4484C118.222 73.1918 117.94 73.0201 117.626 72.9709C117.312 72.9218 116.991 72.9993 116.734 73.1864C94.7292 89.2335 72.1023 81.9491 54.717 66.8989C37.178 51.715 24.8912 28.6376 23.8749 13.1394C23.8796 12.8294 23.7652 12.5294 23.5554 12.3012C23.3456 12.073 23.0563 11.934 22.747 11.9126C22.4783 11.8823 22.2074 11.9467 21.981 12.0946C21.7546 12.2426 21.5869 12.4648 21.5067 12.7231C21.2557 13.3866 20.254 21.3738 19.9319 23.4589C19.4204 26.7856 19.1929 35.199 17.0124 40.9758C15.7738 44.2626 13.9435 46.7237 10.6914 46.0616C7.39837 45.3878 5.55777 41.9711 4.44995 37.4881C1.61284 26.0203 4.08777 7.50716 6.28497 2.10902C6.40415 1.81505 6.40211 1.48586 6.2793 1.1934C6.15649 0.900931 5.9229 0.668973 5.62957 0.548218C5.33501 0.428187 5.00485 0.429987 4.71162 0.553224C4.41839 0.676461 4.18606 0.911057 4.06568 1.20547C1.7758 6.82976 -0.828769 26.1192 2.12503 38.0628C3.49691 43.6125 6.13363 47.5799 10.2126 48.41C14.6991 49.3235 17.5487 46.3501 19.2546 41.8215C21.493 35.8852 21.7732 27.2411 22.3003 23.8255C22.3858 23.2639 22.5419 22.2002 22.7149 20.9653C26.4267 36.2235 37.7999 55.4246 53.1502 68.7123Z" fill="#1A1A1A"/>
</svg>
