<svg width="36" height="38" viewBox="0 0 36 38" fill="none" xmlns="http://www.w3.org/2000/svg">
<path id="Vector" fill-rule="evenodd" clip-rule="evenodd" d="M25.4482 18.3572C16.5951 23.2834 9.17727 29.3436 1.21253 35.5482C0.96131 35.7433 0.797827 36.0302 0.75801 36.3458C0.718192 36.6614 0.805296 36.9799 1.00018 37.2313C1.09699 37.3557 1.21738 37.4599 1.35446 37.5378C1.49155 37.6157 1.64264 37.6659 1.7991 37.6853C1.95557 37.7048 2.11435 37.6933 2.26635 37.6514C2.41836 37.6095 2.56062 37.5381 2.68501 37.4412C10.5485 31.3183 17.8675 25.3207 26.6135 20.4514C27.3767 20.0264 32.2437 17.9526 34.1636 16.7885C34.5943 16.5544 34.9752 16.2384 35.2846 15.8582C35.4322 15.6413 35.5124 15.3856 35.5151 15.1233C35.5244 14.8884 35.4633 14.6561 35.3396 14.4563C35.2159 14.2564 35.0353 14.0981 34.8209 14.0017C34.2267 13.8129 33.6225 13.657 33.0111 13.5345C29.8616 12.778 26.6851 12.2237 23.5846 11.2647C16.6017 9.19608 10.2221 5.47034 4.98939 0.404814C4.76486 0.179919 4.4603 0.0532598 4.14251 0.0526169C3.82471 0.051974 3.51964 0.177401 3.2942 0.401385C3.06931 0.625916 2.94265 0.930479 2.942 1.24827C2.94136 1.56606 3.06679 1.87113 3.29077 2.09657C8.80272 7.43533 15.5219 11.3648 22.8774 13.5511C25.5864 14.3909 28.3491 14.9239 31.1041 15.548C28.9605 16.5956 25.9745 18.0593 25.4482 18.3572Z" fill="#1A1A1A"/>
</svg>
