<svg width="26" height="26" viewBox="0 0 26 26" fill="none" xmlns="http://www.w3.org/2000/svg">
<g id="span.jss107">
<g id="SVG">
<g id="Frame">
<path id="Vector" d="M13 0C15.5712 0 18.0846 0.762437 20.2224 2.1909C22.3603 3.61935 24.0265 5.64968 25.0104 8.02512C25.9944 10.4006 26.2518 13.0144 25.7502 15.5362C25.2486 18.0579 24.0105 20.3743 22.1924 22.1924C20.3743 24.0105 18.0579 25.2486 15.5362 25.7502C13.0144 26.2518 10.4006 25.9944 8.02512 25.0104C5.64968 24.0265 3.61935 22.3603 2.1909 20.2224C0.762437 18.0846 0 15.5712 0 13C0 9.55219 1.36964 6.24558 3.80761 3.80761C6.24558 1.36964 9.55219 0 13 0Z" fill="white"/>
<path id="Vector_2" fill-rule="evenodd" clip-rule="evenodd" d="M14.913 12.8137C14.9331 12.7937 14.9491 12.7698 14.96 12.7436C14.9709 12.7173 14.9765 12.6892 14.9765 12.6607C14.9765 12.6323 14.9709 12.6041 14.96 12.5779C14.9491 12.5516 14.9331 12.5278 14.913 12.5077L11.499 9.09372C11.4034 8.99095 11.3514 8.85511 11.354 8.71479C11.3565 8.57447 11.4134 8.4406 11.5126 8.34137C11.6119 8.24213 11.7457 8.18525 11.8861 8.18271C12.0264 8.18016 12.1622 8.23215 12.265 8.32772L16.215 12.2777C16.3165 12.3793 16.3735 12.5171 16.3735 12.6607C16.3735 12.8043 16.3165 12.9421 16.215 13.0437L12.265 16.9937C12.1622 17.0893 12.0264 17.1413 11.8861 17.1387C11.7457 17.1362 11.6119 17.0793 11.5126 16.9801C11.4134 16.8808 11.3565 16.747 11.354 16.6067C11.3514 16.4663 11.4034 16.3305 11.499 16.2277L14.913 12.8137Z" fill="#A983EB"/>
</g>
</g>
</g>
</svg>
